/* XPM */
static char *_1287e60ea6b46c592e7f7bdf14d52f2[] = {
/* columns rows colors chars-per-pixel */
"64 64 124 2 ",
"   c #383B3C",
".  c #39423F",
"X  c #473E45",
"o  c #4C3E46",
"O  c #424541",
"+  c #444844",
"@  c #484A47",
"#  c #4D444B",
"$  c #4C4B4C",
"%  c #51454D",
"&  c #52494F",
"*  c #534750",
"=  c #534C52",
"-  c #584E55",
";  c #5A4E58",
":  c #545354",
">  c #595356",
",  c #575957",
"<  c #575658",
"1  c #5A555A",
"2  c #57585A",
"3  c #5C5B5D",
"4  c #615C5F",
"5  c #5F5E60",
"6  c #615E61",
"7  c #5F6562",
"8  c #636364",
"9  c #686567",
"0  c #656966",
"q  c #676668",
"w  c #6A6669",
"e  c #666C6A",
"r  c #6B6B6B",
"t  c #706C6E",
"y  c #67706B",
"u  c #6A726E",
"i  c #70726F",
"p  c #6F6F70",
"a  c #716E70",
"s  c #6D7572",
"d  c #6F7874",
"f  c #737474",
"g  c #787577",
"h  c #737976",
"j  c #757579",
"k  c #797779",
"l  c #757C7A",
"z  c #7B7C7C",
"x  c #807F7F",
"c  c #77817D",
"v  c #7A817E",
"b  c #7E7E81",
"n  c #807F82",
"m  c #7E8481",
"M  c #838584",
"N  c #848986",
"B  c #87878A",
"V  c #898789",
"C  c #868B89",
"Z  c #8B8C8C",
"A  c #908F8F",
"S  c #8D918E",
"D  c #8E8F91",
"F  c #908F90",
"G  c #8E9391",
"H  c #939494",
"J  c #959996",
"K  c #999997",
"L  c #969798",
"P  c #979A98",
"I  c #9B9D9C",
"U  c #A09F9F",
"Y  c #9DA19E",
"T  c #A0A19F",
"R  c #9E9FA0",
"E  c #A09FA0",
"W  c #9FA1A0",
"Q  c #A3A4A4",
"!  c #A9A6A7",
"~  c #A6A8A6",
"^  c #A8A9A7",
"/  c #A5A7A8",
"(  c #AAA7A8",
")  c #A6A8A8",
"_  c #A7A9A8",
"`  c #A8ABA8",
"'  c #A8ABA9",
"]  c #AAABAB",
"[  c #ABADAB",
"{  c #ACAFAB",
"}  c #AAAEAC",
"|  c #ACADAD",
" . c #ADAFAD",
".. c #B0AEAE",
"X. c #ADB0AD",
"o. c #AEB0AD",
"O. c #AFB2AF",
"+. c #B0B3AF",
"@. c #B2AFB0",
"#. c #AFB2B0",
"$. c #B0B1B0",
"%. c #B1B3B1",
"&. c #B3B5B3",
"*. c #B4B6B3",
"=. c #B3B5B4",
"-. c #B5B7B5",
";. c #B8B6B6",
":. c #B7BAB7",
">. c #B8B9B7",
",. c #BBB7B8",
"<. c #B7BAB8",
"1. c #B8BBB9",
"2. c #BBBBBA",
"3. c #B9BCB9",
"4. c #C0BEBF",
"5. c #BEC2BF",
"6. c #C4C3C3",
"7. c #C2C5C1",
"8. c #C4C6C2",
"9. c #C8C8C7",
"0. c #CCCDCD",
"q. c #D0CED0",
"w. c LightGray",
"e. c #D8D7D9",
/* pixels */
"z z g f f z z f r 8 6 8 8 q f r 8 8 3 s f r r r 3 3 3 3 3 3 3 8 r 9 8 8 f f h h v l M M N M C C C M v N N z N N N B N N N M g z ",
"O.&. .%.-.1.&.O.O.I L Q Q _ Q Q L z 3 v G S Z Z Z Z m m v N H L I I L I Q Q Q ` &.[ +.*.1.&.3.%.O. .` -.=.&.=.&.3.3.` ` 1.%.:.%.",
"O.:.1.3.7.7.3.%.3.-.} _  .&.O._ W b , s C C Z H I I K I I Q Q Q Q  .Q Q Q _ O.&.:.+.O.+.&.%.1.[ =.%.&.-.%.:.&.-.>.&.[  .:.&.1.%.",
"%.&.1.3.7.8.&.&.3.&.:.&.` 3.:.O.Q D 3 8 z N Z H I I W I I I E Q Q Q Q I Q _ `  .` [ Q Q Q Q ` Q #.-.3.:. .:.`  .-. . .&.&.*.-.%.",
"=.O.:.5.7.&.` -.&.%.O.&.&.O.+.O.` I 5 3 g M B L I L I Y U I I I I I I Q Q _ _ _ _ Q Q Q W Q Q Q ` } O._ ` ` W Q Q Q _  .` &.%.%.",
"W Q _ -.%.Q Q _ I Q Q %.O.[ O.{ _ I 3 3 t z N A H L Y Q Q Q Q _ W Q I Q Q ` } _ Q Q Q Q Q Q Q _ Q ` _ Q W Q Q Q Q W _ ` Q ` Q Q ",
"I Q _ _ _ I W Q [ I I Q ` `  ._ [ Q r 3 q k B H L Q ` Q Q ` Q [  .` Q Q Q `  .Q Q Q Q _ Q Q Q _ Q _ Q I W Q Q _ Q W Q _ Q Q Q I ",
"Q ` } Q I I [ _ I I L L Q _ Q [ O.I r , 8 g Z H H I [ _ [ { _ _ &._ _  .[ O.O.Q Q Q ` [ _ Q _ Q _ Q Q Q Q ` [ _ Q W _ Q Q Q W W ",
"Q _ / R Q ` %.Q I L I L I Q Q O.` Q r : r f B Z H I Q Q O.` _ Q  .` [ [ ` %.}  . . .[ ` Q _ _ Q Q W Q Q _ _ _ Q Q ` [ Q Q W W Q ",
"I I Q #.[ Q Q I L I L L L I Q O.%.Q f : 8 r M M H Q ` [ O.[ +.O. .Q O._  .&.[ Q Q  ._ Q Q W _ Q Q Q Q Q I I Q  ._ Q _ Q Q Q Q Q ",
"Q I #.1.` _ W I L L I L L I  .O.%.` g : 4 r M B I ` { _ ` _ [ %._ [  .Q  .&.Q Q ` _  .&._ [ _ Q Q Q [ [ Q I #.<.` _ Q Q Q Q [ [ ",
"` %.=.} [ } Q L H H H H H W ` &.:. .g : 8 g H L I ` ` } _ Q [ #.` O._ } %. .` Q [  .&.[ [ [ Q W _ _ ` _ ` %.=.} } } Q W _ _ ` _ ",
"` -.&._ _ Q I I H H H H H Q ` &.*. .z : r z L L L I `  .O.O.&.*.[ [ [ [ %.` _ Q  .O.[ Q Q [ _ Q Q [ ` ` ` -.%._ Q _ Q Q Q [ ` ` ",
" .=.%.[ _ Q I W I L D B H I Q [ &.` g : a n B H H L W } _ _ O.Q W _ Q  .#.Q _ Q _ _ _ W Q [ _ _ Q Q Q Q  .#. .Q _ ` _ Q Q Q Q Q ",
"} %.` Q _ ` Q I I H H Z L I ` %.O.Q g $ a z B Z D H L I Q I Q I I I W ` [ Q Q _ _ Q Q Q [ Q _ [  .` Q ` ` [ Q Q } _ _ [ O.[ Q ` ",
"`  .Q ` ` Q Y I I L L L L Q [ %.&.Q r @ r k B B Z H L L H L L H I I W Q R I I Q Q Q W Q } Q Q Q ` Q Q _ _ Q Q Q O.Q Q I [ Q Q Q ",
"` Q Q Q Q Q I I I I I I I I [ %.` I 3 + r f Z V Z A L H D H D L I L I Q W W W I I _ Q Q Q W _ _ Q W I Q Q Q _ ` ` Q Q Q _ Q Q Q ",
"[ Q _ Y Q I L L I I I L L Q ` O._ L : $ q z N M M Z Z Z B Z Z H L I I W Q Q Q _ Q _ W _ Q I Q Q I _ _ Q Q Q Q [ _ [ _ Q [ _ Q Q ",
" .Q Q W L L I L I I I L I W _  ._ Z + : q k z z N V B V N N B Z F L I I I I Q W I W Q Q Q Q I _ Q W _ Q W Q Q [ Q Q Q Q Q Q I } ",
"Q Y I I I I I I I L L P I Q ` Q Q z O 3 8 g z z z x M M z z M x V D H L I I I W Q I W I Q W I W Q I Q [ Q Q _ _ Y W Q Q I I Q Q ",
"I W I I I I I I I L H H I I Q I W r + 6 8 8 q 8 r q a r r r r t f k M Z H I L I I L I H R L I W L H L W L L I I I I I W I I Q Q ",
"L I L L L H H L I H H Z Z Z H L H r + 8 8 8 6 8 q 9 9 q q q q 9 r f j b V L L H H H Z Z D D L L Z H D H D H G D V Z D Z H Z I W ",
"b b b b k k z b z z z j j z z z z 3 $ 8 8 8 8 8 q 9 9 r q r q q 9 8 8 r i h M M z z f j z j b z j j k k z b M V z j j j j k b n ",
"r r r r r r r r 8 3 3 6 6 6 < : = $ # = = = = < : : : < < : : < : : : , 3 8 0 r r r 8 8 8 8 8 5 3 8 8 8 8 8 r r r r r p r p f r ",
"# # # # # # % # # X # % # * = < 8 r 8 8 8 8 q r 8 8 8 8 q 8 8 8 8 6 = & < < : - - = * - - > - & & = = # & # # # # = = = & = = # ",
"v m m M M Z S Z N 8 h C S S G I I Q L H L I I I I Q Q I Q Q Q L C v < : u l S L I I I I I I I T Y I P P I Z Z M m m z v M M M v ",
"S Z G H L Q !  .Y 0 A  . .!  .( @...Q Q ! Q @. .{  .( ! ` `  .[ M f , 3 e s S P I P H H I I I P P Y Y Y I P P P Y Y Y Y Y P H G ",
"L G S C S Y _ ^ Y 8 Z  ...!  .@.1. .Q `  . .;...%. .!  . .Q Q ` Q 7 : 3 y h G P I Q P P I K H L H Y Y I L I I P I I P Y Y I H H ",
"H H C N Z Q Q Q I 3 M { Q ` Q ( %.Q I Q Q { %...! Q Q ! Q I P H O.v @ 3 s h S I T T I I I I P H H P G G P P I Y Y I P P I P H G ",
"H G C C S Y T I P 3 z T I I I L I H L L I Q ! I L H L I L S S Z S Z = 3 s u m L Y Y T Y Y Y I L H P I L I I Y T Y P H H P H G G ",
"G Z Z Z C H I I L < f H Z Z H H H H S Z Z P H L S Z Z Z Z S S S G l : 8 l h N H L I Q Q Q Q Y I P I I P Y Y Y Y Y I H H H H H H ",
"G C S S C I ( ! L < r Z Z B Z L Z B B Z G H H H Z M C S Z S Z S C v = 8 h h C L L I Y T Q Q Q I I L P P I Y Y I I I Y P H H G G ",
"P H G G S I Q ( I 2 q N N N Z H Z Z B Z Z A Z B B N B S S S Z S S v $ 3 h s v P L L P L I I Y I P I I I P L H P Y T Q I I I L P ",
"T I P S C I Q Q I 3 8 N M N Z H Z B B N S Z Z B N N B Z S C v C Z 0 $ 3 v z h H H I I L I P I Y Y Q Y I I I L I Q Y I Y Y Y I Y ",
"E L H C m Z Z H L 3 6 M N M Z B C B B B Z S Z N N B Z B Z N M N C 8 = 3 l C e L I P I I I I I Q Q Y I I P Y Y Q Q Y Y I I I I Q ",
"N m h s s f N B N 2 8 z M M N M N m m M m m m v v v m m M m m N v e = < y N 7 f C C S L H H L I I I P H P I P I P L P H H H S C ",
"m l s f l m e h l 3 8 f h l z z v v c l l l c l c l h h l l z v h u - < e v e . 0 u s l l l h l z v v c N N v v c c l l l h m N ",
"r 3 3 3 3 3 8 3 6 : 3 r r 8 r r q r r 6 3 3 3 3 5 3 3 < 3 3 3 3 < < % > 8 f r   3 8 q e q e e y u u u s h h h h s s s u u u h s ",
"> 4 q r t t f f r 8 q r r r q q q r r a q r q r r f a t r q r r 8 q r q 1 > 1 X o # o o % = : : < 3 3 3 8 3 3 < 1 3 < < > < 3 = ",
"8 v C Z S S H H Z Z H Z Z B M M M N Z L I Q Q Q I I I K P I Q Q Q Q Y Y I H G S Z N M z z z z z z z n V M z q = < 5 8 r h h l 4 ",
"3 u v L I L H H Z Z C M M v z M N M M M H H H H B H H Z H L Q ` _ _ ` [ [ [ ` _  .T _ ^ _ Q ! Q ! ! ! ` ^ ` Q U Q Q Q Q ` ` Q 3 ",
"3 u h H L L H S S S Z S H S C B Z Z B B L K I I I I I I I Q Q ` ` [ &.&.%.%.%.%.&.{ %.%. .%.-.-.-.%.%.%.%.%.%.%.%.%.+.1.1.1.Q = ",
"8 u l H I P Z C Z Z S H H H P P L I T I I Q Q U Q ! ` Q Q _  .[ _ O.&.&.O.O.{ &.O.-.-.%.%.1.1.1.1.-.-.-.-.*.-.%.-.%.-.4.@.;.-.8 ",
"8 u h P I G C Z S S H L H H Y ^ ^ ! Q Q Q Q Q Q Q  .` ^ ` ` ` [ [ O.+.%.O. .` [ %.-.%.%.%.-.&.-.-.-.1.1.1.1.1.-.-.%.%.%.6.w.6.a ",
"7 e s G S C Z S H P P I Y Q ` ` ` Q Q ! Q Q I Q Q ! ` Q { `  . .&.&.O.%.%.` O.} %.#.%.+.%.-.%.>.=.1.1.1.1.1.1.>.-.&.-.6.9.6.O.8 ",
"8 s h Z C Z S H I W Y Y T ^  . .@. . .` _ Q Q U Q  .Q ` ` Q  .%.%.&. .+.` [ _ [ #.`  .%.%.%.-.1.-.1.1.1.1.1.1.1.1.-.#.:.6.q.1.r ",
"r h l Z S S G H Y Q Q Q Q { 1.,.1.=.%. .Q Q Q Q Q ` ` ` Q Q Q ..{ ` +.{ ^ _ _ } ` [  .} O...-.-.>.1.1.1.1.1.1.1.>.#.} <.w.e.6.f ",
"r d s Z H H I I Q ` +.%.%.*.;.;.,.;.;.-. . .Q Q ` Q  .` ^ Q [ ` ` { { Q ` ` _ ` [ Q  .` [ ` 1.>.1.1.1.1.1.1.1.1.&.#.O.:.7.0.3.r ",
"e s l L W Q Q _ ` %.{ ` 1.1.-.-.;.1.1.%. .Q Q Q Q ` ` Q { `  .-. .` Q ^ [ ` _ _ _ O.[ [ ` W %.1.-.-.-.1.1.-.1.1.&.O.O.&.1.6.:.r ",
"0 s c L I Q Q Q `  .`  .%.1.-.=.&.-.=.%.+.` Q Q ` Q  . . ... . .+.^ ^ ` Q Q _ {  .` { [ _ I -.1.*.*.%.1.-.>.1.:.&.&.O.&.:.-.O.w ",
"q s v L Q Q Q Q ` `  .@.@.%.%.%.#.#.#.&.O.O.Q Q  .` `  . .` [  .` ^ ` ^ { O.`  .O.[  .O.+.Y :.1.&.*.%.*.%.%.%.O.1.&.&.1.1.:.O.r ",
"r s l I Q Q ` Q  ...@.@...%.%.+.O.#.O.` } ^ Q %.{  . . .`  .Q  .Q Q Q ` Q ^  . .Q O. .{ O.Y [ :.O.O.&.;.+...-.%.&.[ %.4.6.1.O.w ",
"r f l I ^ Q Q ` `  . . . . . . .#.#.O.Q [ _ ` %. .` [ O.O.Q } Q Q _ Q _  .[ Q _ [ _  .[ [ K [ :.&.+.*.1.+.+.%.%.+.[  .1.6.6.} r ",
"u h v I Q Q Q ` `  . .Q  .` `  .` Q _ _ } [  . .Q _ ` _ _ ` } _  .` _ [ Q [ ` _  .Q _  . .J [ :._ O.-.%.%.+.O.%.O.#.O.1.6.6.} t ",
"s l N I Q Q Q ` Q ` ` Q ` ` ^ Q Q Y Q _ [ [ _ ` Q ` Q Q Y Y Q Q _ _ Y Q ` ` { _ Q Y _ _ ^ K  .%.[ [ _ +.+.%. . .`  .O.1.1.6.} t ",
"h l C I Q Q Q Q ! ` Q Q Q ` ` Q Y W Q Q Q ` Q _ ` _ Q I I Y I Y Y W I Q Q ` _ Q Y Q Q _ ` I  .;. .[ ` _  .+. .O.{ ` [ -.1.4.[ r ",
"l h m W Q Q ` Q ` Q Q ` ` `  . .! Q ! `  .Q Y Q Q Q W Y I I Y P I Q Y _ _ Q W Y Q _ Q Q ` I Y %.` ` Q [ Q Q [ ` [ [ [ &.1.1._ r ",
"f l N I Q Q Q Q ` Q !  . .` ` Q Q  . .` ` Q Q W W I I Y Y I L I Y Q Q _ ^ Q I I ~ Q _ ~ Q I _  .[ _ Q } Q Q _ _ _ `  .%.<.1.Q r ",
"f l m I Q Q Q ^ Q Q `  .^ Q ! ` Q ` Q Q Q Q Q Q W I I I I L I I Q Y Q ` Q _ Q W Q Q Q Y W Y Q [ ` Q Q O.Q Q ` _ _ _ _ %.&.=.Q q ",
"h l m I I Q Q Q Q Q ` Q Q Q Q Q Q _ Q T I W Q Q Q I I I P L I I Y Y I W W W I I Q Q Q Q Y L Y ` _ _ Q ` Q Q Q Q Q ~ _ O.&.<.Y 9 ",
"h h v I I Y Q Q I Y I Q I P Q I Q I I H P L P I I I H P P J H H I Q Q Q Y Q Y W Q Q Q W Q I ` { [ Q Q #.W Q _ Q _ _ [ O.=.:.Q 9 ",
"f f h m C C Z Z C C G C C v m N C m m v m m v m v v l v m m v v v N S L I I I I I I I P P I Y Q Q Q Q [ L Q _ Q Q Q _ O. .O.I 6 ",
"1 r h h h h l l z z v v v l l l v v v l v z l z h l d s d s s u s h h h h m C M C C C N N N C G H L P S C H H G G G G P W W S 1 ",
"> > 3 3 3 5 6 3 3 3 < 3 3 8 8 q 8 3 > 6 8 3 3 1 1 1 1 1 1 - ; * - < 3 3 8 8 8 0 8 4 3 3 3 3 8 9 9 q 8 3 5 q 9 r r r r r r r 8 > "
};
