/* XPM */
static char *_93a29c80fe141cbd62de36a6bffd348SNilhxKgEqGdefQ5[] = {
/* columns rows colors chars-per-pixel */
"128 64 30 1 ",
"  c #1E1401",
". c #161616",
"X c #191919",
"o c gray11",
"O c #211705",
"+ c #211805",
"@ c #2F2F2F",
"# c #313131",
"$ c #373737",
"% c #393939",
"& c gray24",
"* c #58391B",
"= c #012656",
"- c gray39",
"; c #646464",
": c #747373",
"> c #757473",
", c #767575",
"< c #787777",
"1 c #797877",
"2 c #797979",
"3 c #7C7C7B",
"4 c gray49",
"5 c gray50",
"6 c #FF1414",
"7 c #925213",
"8 c #818181",
"9 c #BBBBBB",
"0 c gray",
"q c #C0C0C0",
/* pixels */
"77777777777777777777777777777777777777777777777777777777777777777777777777777777777777777777777777777777777777777777777777777777",
"7******************************************************************************************************************************7",
"7*7777777777777777777777777777777777777777777777777777777777777777777777777777777777777777777777777777777777777777777777777777*7",
"7*7**************************************************************************************************************************7*7",
"7*7*777777777777777777777777777777777777777777777777777777777777777777777777777777777777777777777777777777777777777777777777*7*7",
"7*7*7======================================================================================================================7*7*7",
"7*7*7======================================================================================================================7*7*7",
"7*7*7======================================================================================================================7*7*7",
"7*7*7======================================================================================================================7*7*7",
"7*7*7======================================================================================================================7*7*7",
"7*7*7================================================$$$$$$$$$$$$$%%$$$$$$$================================================7*7*7",
"7*7*7================================================%%%%%%%%%%%%%%%%%%%%%%================================================7*7*7",
"7*7*7==========================================$$$$$%:,,,,,,,,,4444444444,,$$$$$$==========================================7*7*7",
"7*7*7==========================================$$$$$%,<<222<<<<4444488844<<$$$$$$==========================================7*7*7",
"7*7*7========================================$$;;;;<<<<<284444444444884444444<<qq$$========================================7*7*7",
"7*7*7========================================$$;;;;<<<<<<84444444444884444444<<qq$$========================================7*7*7",
"7*7*7======================================$%----<<<,#@@@@@@@@@@@@@@@@@@@@@@#,<qqqq$$======================================7*7*7",
"7*7*7======================================$%----<<<,#@@@@@@@@@@@@@@@@@@@@@@#,<qqqq$$======================================7*7*7",
"7*7*7====================================$$;;--<<@@@@@@@@@@@@@@@@@@@@@@@@@@@@@@@@qqq0%$====================================7*7*7",
"7*7*7====================================%%;;--,,@@@@@@@@@@@@@@@@@@@@@@@@@@@@@@@@99q0&%====================================7*7*7",
"7*7*7==================================$$----####@@@@@@@@@@@@@@qq@@@@@@@@@@@@@@@@$$q044  ==================================7*7*7",
"7*7*7==================================$$----#@@@@@@@@@@@@@@@@@qq@@@@@@@@@@@@@@@@@@q084  ==================================7*7*7",
"7*7*7==================================$$--@@@@@@@@@@@@@@@@@@@@qq@@@@@@@@@@@@@@@@@@@#44  ==================================7*7*7",
"7*7*7==================================$$--@@@@@@@@@@@@@@@@@@@@99@@@@@@@@@@@@@@@@@@@#44  ==================================7*7*7",
"7*7*7================================$$..@@@@@@@@@@@@@@@@@@@@@@$@@@@@@@66@@@@@@@@@@@@@@..  ================================7*7*7",
"7*7*7================================$$..@@@@@@@@@@@@@@@@@@@@@@@@@@@@@@66@@@@@@@@@@@@@@..  ================================7*7*7",
"7*7*7================================$$..@@@@@@@@@@@@@@@@@@;;;;;;;;;-#@@@66@@@@@@@@@@@@..  ================================7*7*7",
"7*7*7================================$$..@@@@@@@@@@$$$$@@##;;;;;;;;;-##@@66$#@@@@@@@@@@..  ================================7*7*7",
"7*7*7================================$$..@@@@@@@@@@9999@@--,<4444666666666666#@@@@@@@@@..  ================================7*7*7",
"7*7*7================================$$..@@@@@@@@@@qqqq@@;;<<4444666666666666$@@@@@@@@@..  ================================7*7*7",
"7*7*7================================$$..@@@@@@@@@@@@@@@@;;44;-----44;;@@66@@@@@@@@@@@@..  ================================7*7*7",
"7*7*7================================$$..@@@@@@@@@@@@@@@@;;44;-----44;;@@66@@@@@@@@@@@@..  ================================7*7*7",
"7*7*7================================$$44..@@@@@@@@@@@@@@@@;;;;;;;;;-#@66@@@@@@@@@@@@..;;  ================================7*7*7",
"7*7*7================================$$44..@@@@@@@@@@@@@@@@;;;;;;;;;-#@66@@@@@@@@@@@@..;;  ================================7*7*7",
"7*7*7================================$$4888..@@@@@@@@@@@@@@@@@@@@@@@@@@@@@@@@@@@@@@.X,<;;  ================================7*7*7",
"7*7*7================================$$4888XX@@@@@@@@@@@@@@@@@@$$@@@@@@@@@@@@@@@@@@Xo:,;;  ================================7*7*7",
"7*7*7================================$$444442X...@@@@@@@@@@@@@@99@@@@@@@@@@@@@@....,:;;;;  ================================7*7*7",
"7*7*7================================$$444484X...@@@@@@@@@@@@@@qq@@@@@@#@@@@@@@....<,;-;;  ================================7*7*7",
"7*7*7================================$$4444480qqq....@@@@@@@@@@qq@@@@@@@@@@....<<<<;;--;;  ================================7*7*7",
"7*7*7================================$$4444480qqq....@@@@@@@@@@qq@@@@@@@@@@....<<<<;;--;;  ================================7*7*7",
"7*7*7================================$$4444480qqq4444X.....................<<<<--------;;  ================================7*7*7",
"7*7*7================================$$4444480qqq4444X.....................<<<<--------;;  ================================7*7*7",
"7*7*7==================================$%84480qqq4448844444444448844444<<<<<,;---------  ==================================7*7*7",
"7*7*7==================================$%33480qqq4448844444444448844444<<<<,,;---------  ==================================7*7*7",
"7*7*7====================================+O480qqq888444444444448444<<<<<<<<;;------;-+O====================================7*7*7",
"7*7*7====================================  480qqq844444444444488444<<<<<<<<--------;-O ====================================7*7*7",
"7*7*7====================================== +9qqq4444488444488884<<<,;;;;----------  ======================================7*7*7",
"7*7*7====================================== +9qqq4444888884448884<<<,;;;;----------  ======================================7*7*7",
"7*7*7========================================    4484444448444444<<<,;;----;;;;    ========================================7*7*7",
"7*7*7========================================    4884444448844444<<<,;;----;;;;    ========================================7*7*7",
"7*7*7============================================   O3444888444<<<<;;;;----    ============================================7*7*7",
"7*7*7============================================   +1333444433>>>>--------    ============================================7*7*7",
"7*7*7================================================+OOOOOO++OOOOOOOOOOOOO================================================7*7*7",
"7*7*7================================================                      ================================================7*7*7",
"7*7*7======================================================================================================================7*7*7",
"7*7*7======================================================================================================================7*7*7",
"7*7*7======================================================================================================================7*7*7",
"7*7*7======================================================================================================================7*7*7",
"7*7*7======================================================================================================================7*7*7",
"7*7*777777777777777777777777777777777777777777777777777777777777777777777777777777777777777777777777777777777777777777777777*7*7",
"7*777************************************************************************************************************************7*7",
"7*7777777777777777777777777777777777777777777777777777777777777777777777777777777777777777777777777777777777777777777777777777*7",
"7******************************************************************************************************************************7",
"77777777777777777777777777777777777777777777777777777777777777777777777777777777777777777777777777777777777777777777777777777777"
};
