/* XPM */
static char *_8c0b515dc164e65d9bf326c4dd38a6eVOR0V5BfpJ0GDQk5[] = {
/* columns rows colors chars-per-pixel */
"128 64 31 1 ",
"  c #1E1401",
". c #161616",
"X c #191919",
"o c gray11",
"O c #211705",
"+ c #211805",
"@ c #2F2F2F",
"# c #313131",
"$ c #373737",
"% c #393939",
"& c gray24",
"* c #58391B",
"= c #012656",
"- c gray39",
"; c #646464",
": c #747373",
"> c #757473",
", c #767575",
"< c #787777",
"1 c #797877",
"2 c #797979",
"3 c #7C7C7B",
"4 c gray49",
"5 c gray50",
"6 c #FF1414",
"7 c #925213",
"8 c #818181",
"9 c #B7B7B7",
"0 c #BBBBBB",
"q c gray",
"w c #C0C0C0",
/* pixels */
"77777777777777777777777777777777777777777777777777777777777777777777777777777777777777777777777777777777777777777777777777777777",
"7******************************************************************************************************************************7",
"7*7777777777777777777777777777777777777777777777777777777777777777777777777777777777777777777777777777777777777777777777777777*7",
"7*7**************************************************************************************************************************7*7",
"7*7*777777777777777777777777777777777777777777777777777777777777777777777777777777777777777777777777777777777777777777777777*7*7",
"7*7*7======================================================================================================================7*7*7",
"7*7*7======================================================================================================================7*7*7",
"7*7*7======================================================================================================================7*7*7",
"7*7*7======================================================================================================================7*7*7",
"7*7*7======================================================================================================================7*7*7",
"7*7*7================================================$$$$$$$$$$$$$%%$$$$$$$================================================7*7*7",
"7*7*7================================================%%%%%%%%%%%%%%%%%%%%%%================================================7*7*7",
"7*7*7==========================================$$$$$%:,,,,,,,,,4444444444,,$$$$$$==========================================7*7*7",
"7*7*7==========================================$$$$$%,<<222<<<<4444488844<<$$$$$$==========================================7*7*7",
"7*7*7========================================$$;;;;<<<<<284444444444884444444<<ww$$========================================7*7*7",
"7*7*7========================================$$;;;;<<<<<<84444444444884444444<<ww$$========================================7*7*7",
"7*7*7======================================$%----<<<,#@@@@@@@@@@@@@@@@@@@@@@#,<wwww$$======================================7*7*7",
"7*7*7======================================$%----<<<,#@@@@@@@@@@@@@@@@@@@@@@#,<wwww$$======================================7*7*7",
"7*7*7====================================$$;;--<<@@@@@@@@@@@@@@@@@@@@@@@@@@@@@@@@wwwq%$====================================7*7*7",
"7*7*7====================================%%;;--,,@@@@@@@@@@@@@@@@@@@@@@@@@@@@@@@@00wq&%====================================7*7*7",
"7*7*7==================================$$----####@@@@@@@@@@@@@@ww@@@@@@@@@@@@@@@@$$wq44  ==================================7*7*7",
"7*7*7==================================$$----#@@@@@@@@@@@@@@@@@ww@@@@@@@@@@@@@@@@@@wq84  ==================================7*7*7",
"7*7*7==================================$$--@@@@@@@@@@@@@@@@@@@@ww@@@@@@@@@@@@@@@@@@@#44  ==================================7*7*7",
"7*7*7==================================$$--@@@@@@@@@@@@@@@@@@@@00@@@@@@@@@@@@@@@@@@@#44  ==================================7*7*7",
"7*7*7================================$$..@@@@@@@@@@@@@@@@@@@@@@$@@@@@@@@@@@@@@@@@@@@@@@..  ================================7*7*7",
"7*7*7================================$$..@@@@@@@@@@@@@@@@@@@@@@@##@@@@@@@@@@@@@@@@@@@@@..  ================================7*7*7",
"7*7*7================================$$..@@@@@@@@@@@@@@@@@@;;;;;;;;;-#@@@@@@@@@@@@@@@@@..  ================================7*7*7",
"7*7*7================================$$..@@@@@@@@@@$$$$@@##;;;;;;;;;-##@@$$$#@@@@@@@@@@..  ================================7*7*7",
"7*7*7================================$$..@@@@@@@@@@0000@@--,<44444444--@@0009#@@@@@@@@@..  ================================7*7*7",
"7*7*7================================$$..@@@@@@@@@@wwww@@;;<<44444444;;@@www0$@@@@@@@@@..  ================================7*7*7",
"7*7*7================================$$..@@@@@@@@@@@@@@@@;;44;---6644;;@@@@@@@@@@@@@@@@..  ================================7*7*7",
"7*7*7================================$$..@@@@@@@@@@@@@@@@;;44;---6664;;@@@@@@@@@@@@@@@@..  ================================7*7*7",
"7*7*7================================$$44..@@@@@@@@@@@@@@@@;;;;;;;666#@@@@@@@@@@@@@@@..;;  ================================7*7*7",
"7*7*7================================$$44..@@@@@@@@@@@@@@@@;;;;;;;;666@@@@@@@@@@@@@@@..;;  ================================7*7*7",
"7*7*7================================$$4888..@@@@@@@@@@@@@@@@@@@@@@@666@@@@@@@@@@@@.X,<;;  ================================7*7*7",
"7*7*7================================$$4888XX@@@@@@@@@@@@@@@@@@$$@@@@666@6@@@@@@@@@Xo:,;;  ================================7*7*7",
"7*7*7================================$$444442X...@@@@@@@@@@@@@@00@@@@@6666@@@@@....,:;;;;  ================================7*7*7",
"7*7*7================================$$444484X...@@@@@@@@@@@@@@ww@@@@@@666@@@@@....<,;-;;  ================================7*7*7",
"7*7*7================================$$444448qwww....@@@@@@@@@@ww@@@@@6666@....<<<<;;--;;  ================================7*7*7",
"7*7*7================================$$444448qwww....@@@@@@@@@@ww@@@@@@@@@@....<<<<;;--;;  ================================7*7*7",
"7*7*7================================$$444448qwww4444X.....................<<<<--------;;  ================================7*7*7",
"7*7*7================================$$444448qwww4444X.....................<<<<--------;;  ================================7*7*7",
"7*7*7==================================$%8448qwww4448844444444448844444<<<<<,;---------  ==================================7*7*7",
"7*7*7==================================$%3348qwww4448844444444448844444<<<<,,;---------  ==================================7*7*7",
"7*7*7====================================+O48qwww888444444444448444<<<<<<<<;;------;-+O====================================7*7*7",
"7*7*7====================================  48qwww844444444444488444<<<<<<<<--------;-O ====================================7*7*7",
"7*7*7====================================== +0www4444488444488884<<<,;;;;----------  ======================================7*7*7",
"7*7*7====================================== +0www4444888884448884<<<,;;;;----------  ======================================7*7*7",
"7*7*7========================================    4484444448444444<<<,;;----;;;;    ========================================7*7*7",
"7*7*7========================================    4884444448844444<<<,;;----;;;;    ========================================7*7*7",
"7*7*7============================================   O3444888444<<<<;;;;----    ============================================7*7*7",
"7*7*7============================================   +1333444433>>>>--------    ============================================7*7*7",
"7*7*7================================================+OOOOOO++OOOOOOOOOOOOO================================================7*7*7",
"7*7*7================================================                      ================================================7*7*7",
"7*7*7======================================================================================================================7*7*7",
"7*7*7======================================================================================================================7*7*7",
"7*7*7======================================================================================================================7*7*7",
"7*7*7======================================================================================================================7*7*7",
"7*7*7======================================================================================================================7*7*7",
"7*7*777777777777777777777777777777777777777777777777777777777777777777777777777777777777777777777777777777777777777777777777*7*7",
"7*777************************************************************************************************************************7*7",
"7*7777777777777777777777777777777777777777777777777777777777777777777777777777777777777777777777777777777777777777777777777777*7",
"7******************************************************************************************************************************7",
"77777777777777777777777777777777777777777777777777777777777777777777777777777777777777777777777777777777777777777777777777777777"
};
