/* XPM */
static char *_5c8cd05814d4106c697a42baaaacda0Zd9vk4cVMnsoBcLU[] = {
/* columns rows colors chars-per-pixel */
"64 64 89 1 ",
"  c #362207",
". c #372309",
"X c #39250D",
"o c #3E290F",
"O c #3E2911",
"+ c #402A0F",
"@ c #422C12",
"# c #493114",
"$ c #47321C",
"% c #4D361C",
"& c #4F381E",
"* c #543A1C",
"= c #593D1D",
"- c #553C21",
"; c #5A3E20",
": c #5D401E",
"> c #5D4122",
", c #634525",
"< c #694726",
"1 c #664926",
"2 c #6B4A26",
"3 c #654728",
"4 c #664A29",
"5 c #6C4D29",
"6 c #734C27",
"7 c #714E2A",
"8 c #6F502B",
"9 c #7D5427",
"0 c #74522C",
"q c #7B552C",
"w c #7D582E",
"e c #775730",
"r c #795730",
"t c #7D5A31",
"y c #81572A",
"u c #845B2D",
"i c #895E2F",
"p c #855D31",
"a c #895F30",
"s c #87602F",
"d c #8A602F",
"f c #866133",
"g c #8C6333",
"h c #8E6836",
"j c #8C6639",
"k c #8F6939",
"l c #906533",
"z c #936733",
"x c #906634",
"c c #936734",
"v c #936833",
"b c #946933",
"n c #926835",
"m c #916A36",
"M c #966B35",
"N c #966936",
"B c #966B37",
"V c #996E37",
"C c #9B6F37",
"Z c #916739",
"A c #926A38",
"S c #936B38",
"D c #956A38",
"F c #936C3B",
"G c #956E3A",
"H c #926B3C",
"J c #9B6F39",
"K c #9C6F39",
"L c #996F3C",
"P c #97703A",
"I c #97703E",
"U c #9B7038",
"Y c #9C723B",
"T c #9F723A",
"R c #9B713E",
"E c #9F723C",
"W c #9F733C",
"Q c #A0733B",
"! c #A0743C",
"~ c #A1743C",
"^ c #A1753D",
"/ c #966F40",
"( c #9A7340",
") c #9C7442",
"_ c #A17641",
"` c #A57943",
"' c #A37A46",
"] c #A97C46",
"[ c #A47B49",
/* pixels */
"5580qqrrqq005,:::1588800qqtfffpffpppfffte005211,444143*X&4008085",
"GGAAAAAAAAhnnGGGPGGGDDBBnnggghhhkkAhhhhkxxhgghnnnAGF('RX8xnhhhnG",
"uuuuuuuuuuuuuuuuuuuuuuuuuuuuuuuuupuppaaaggggaggggggppHLX5qquuuuu",
"nnnnnnxxhxxnnnnnxnnxxxxnlgggngaggxghhhhnnBBBBBBBBxhhgARX5wpgghhx",
"xBxgggggggggglllllglllBBvllblgllgggggglnnnBBnnhggpptttp.50qwuggx",
"xBJTQQT!QQTTJTQ!!EETTKTUVTJVTTVBBBxxnBBBBBBBnnnBJUUAffp.,7ppgggg",
"TQ!TTJJTTT!!TTJJTE!!````!!QTBBVBnxBnnBBBVVJJGDBGJGVngAEX0pgxBBVJ",
"nBBVTTTTTJVVJJJVVVJJT!!!EQTTTKBBVBBBBBJUJJGGnhgffhxhahF.7pgxxhhx",
"BJTTTTT!!!!!TTTTTKVTTKTTT!!!EEEUVTTTTTTTTETUUJGnxhfw000.7phBJJBB",
"xxxnxxxxxBVKJBVJTTTTQQTTKTTTTVVVVJVJUT!!!EETUJJJJUTUBILO400qtpag",
"ghhggggggllggggllvxBlBVVBVJJJJVJVVBJJVVTT!ETJJBBnBBnh/(O5qqppagg",
"ghnnxhggggggggggggxgxxxllBBlgglllxgllxlllhhxnBDnhgpq00qo5quppggg",
"gggggggppppgggggggggggggggggggggggggggxxxxxxhxxxnnnnkI(@7qwpaagg",
"apppppuuupuuuuuuuuuuuuuuuuuuuaaggaagggggggggggggghxAA))@5qqupupa",
"55000qq007555770770qqqqqqqq0000070070000qqqqqqqwwwqq055.;2224322",
"q0558555570qpffpq* ,50555855qqwwwqqq0q000550000000qqq008qwwwrqqq",
"EEE_E____)))((()'j.A_RRRGnnnnnnnnxnnBGGJGGJJJJLLLFILJUUJGJEEREEE",
"fggggggggfppppppkj.wppppppppuppupppuuuuuuy99wuuuuuuuuuyuuugguuuu",
"xggnxnBnxhhhfpppkf.0pppfhhhhhgggggggggggaauaiggagggggggglgnBnxnn",
"BBBBBVJJJJBAnggpjt.5qqwwupgggghgggxnxxgggggggxBBxBnnnnxxhxxnxnBB",
"gggggggghnBBxhgpf0.,27qphnnBBBBBBnnnxgggggggggglblgllglggggggggg",
"BBBnnnnBBGURRGjt0;.5pugghxnBBBGJUGBBnnnxnvvlnBVBVBBBnxnllvvnxnBB",
"BBGDGBBBGGGJJDnfAq.2pgDDDBVJGJUTE_!!EEE!TJTTJJTUJBBBBBBBBnBBGBBB",
"EETTTUGBGDGGJDnfGt >27qugghhnnnBnnnnnBnnBBBBVVVJTUGUUTTETETUTEEE",
"EEEEEUGDDDDnAnhfLt.3hxJJKE!!_`!`!__EETE!UEJJVBVVBBJUTTTETEETEE!!",
"TTETURRJJDAAAhgfAp.,hJRREE!!!!!!EEJJJJBBBnlbBlvnnBBBBBnBUUUUUUUT",
"JJJJJGnnnnxhjgpujf ,phGGDDBBBBBBnnnBvlvlblgllvBBGUUEERUJVUUUGUGJ",
"BJJJGnBnDJUGAfu777 *27wpfhnBBJJBJBBBBxvllgglvlllvnVBBBBBnnnBnGnB",
"nnnBBBnnnhhhAhhfff.,fphADJJTGJDBJBBJBBBBBxxnnnxgggggggggggggnhnx",
"BBBnDGDAnnhhfgpppRX>pppgnGJJxDxxnhhhhxxxnnxnnhhgggggghhhhhhhnnGn",
"nhnnnhnhhhhfffpppEO*0qtpppggpapppppppggpuuuuuuupfpgfagggggghnhxn",
"ggggggggggppppppp_@,kjjjjhhxhhhggggaaapuuaiuuuuuuuuupppuapuupggg",
"wwwuwqqqqqq000000qX*0qq99qqqqqqq000007522223333<2333332777770qqw",
">>;=*=;;;;;;>>>,,>,33>>>>>,,,,,>%X>2200q00qqwwwqq0000552223;>>>>",
"TTUVBvBBVJVJJUE!TT!!EEEEEEEEEEE_p@uggglllnBBvnlbBBVVBBVVUJBBJJTV",
"uyyyyyuuuiuigggllxlggapuuuyyuupRq@q0q99y99qq99999yyyyyyyyuuuuuuu",
"uuuuuyyyyyyyuuuaaaaauuupppppppqx2@77qyuuuuuuyuuuuuuuuuuuuuuuuuuu",
"ggdiiiiuyyyyyyyuuuuyy9qq000q075q>o259uupuuuuuupaagggiuuigdddggdg",
"lllglglgllglggggllgggaaapaggggpL5@770quuagggllxBVJJJJVVVVBnnxnnx",
"xxvBBBllllgggllllgglllggglggggpR7@quahxxxxBBJVJBBVBBBBBBVVBBvxxx",
"bbbllbllllglllxxxxBxBBBxlllggguG5@qpgxnBBBBJVJVTTQ!QTTKTJVVVVVVB",
"vllllllgliddllllllgglglllgggguqw>.;27qpgggghgglxxnBBBBBBBBBBbvBn",
"VBBBbllblllbbllBBBKBJxJVVBBBBxxJq+0pghxBnBxnBJJUJUUUTUJJUTJJVJVV",
"VVVBBBBlbblbbVBBVVBVxVBKVBBBxggJq@quahhxnnBGGBGGJBJJJJKEJJUUJJJB",
"JVBBVBlbBlBlBnBBxKxVlVxBBBxxhgpx0@qppghnBJJJJUUTT!TETEETJEJTKVJJ",
"lbBVBlllldlglgiialagaiiuuuppw057>@upuaghgghxnDBJBBBBBBBBBnlxllBB",
"aggggiidgiigiiiiaalgggglxBBBxgaGpX2257qquppaaagggggggggggiggagaa",
"iuuuiiuuuuuiiigaaiuiuaiappppuupZp@9upaghgghxhghhgggggggpuuuuuauu",
"uuuyyyy99yyyyyuuuuuuuuuggppppuuAA#yuupaaagggggggaauapuuuuuuuuuuu",
"yy999666699y999yyyyuuuuuuqqqqqugh#upuuuuuuwwwuuuuuuuuuuuuuuuuuuy",
">;$@@*-;-;>,,122221,255555052555,*,122555052852231212222142423>>",
"]`_5*_'`````__```]]]'__ERE_''''['_)__)__!!ETE!EEE!!_`]]]]]]]]]]]",
"kH[p*affjgffggggggjggggggggfgguuupuafpauuuuuuuuyyuuuuuuuuuupfjjk",
"ff)p*ppffffffjjfjjjfjgggghnhhggsgggggggggggggaggggggggggfffpgggg",
"qqAq=pfpfjjjjhhAnAAAAAAAnGGBBngggggxxxnnnhnnxghhggggppuwq00000qq",
"fpp1=pffffjjjhhhhnnnnnnBBBGBUJUGBBBGJJTEETUUJJURRURUGGGGGGAGAGGh",
"fpFr=wpffhnnGGGUGUUUEEUTEEETETTUTTUVUTE!E!_!EE!!EEEEEUGGAAhhhhhf",
"ffFe*0wfhxxGGGUURRRE__!____ETTUUTUBVVUUJUUUEE!EE)__EEEUGLUGGAAkh",
"ppAr:ujGJGGJJUETRERE_!!!EE!!!!TTETJUTTTTTE!EEEEETTUEJUUnnAnhhhff",
"tqr,:ujnAAJGJGJUTUUUUUUUUUUUTTEEUJJJTTT!EET!!EUGBBBnnnhhgffffhhf",
"hh(e*50wpagghjhhnAGPJJJnJUBnnnBBgnvnnBxBnxBnnxhnnnnnnnnnnnnnAADn",
"Ah(t=phhhhhnhhhjjjhhhhhggggggggggggggggggggxhgghhnhnnnhhhggjhnAA",
"jh(p=phhAkAkhhhhhgffffpuuwyyyyuuuuuuuuuuifuuudguggggiuappggghhAA",
"007>@500000q0000qqq00007521,,>,1200q00052,3157q9q00qqqqq9qq07500"
};
