/* XPM */
static char *e0c31bd09d474ed4eb861495d8d5bbbd5McFsONA4gecgdCv[] = {
/* columns rows colors chars-per-pixel */
"64 64 2 1 ",
"  c black",
". c white",
/* pixels */
"                                                                ",
"                                                                ",
"                                                                ",
"                                                                ",
"                                                                ",
"                                                                ",
"                                                                ",
"                                                                ",
"                                                                ",
"                                                                ",
"             .................                                  ",
"             ....................                               ",
"             ......................                             ",
"             ...            .........                           ",
"             ...               ........                         ",
"             ...                 .......                        ",
"             ...                   .......                      ",
"             ...                     ......                     ",
"             ...                      .......                   ",
"             ...                        .....                   ",
"             ...                         ....                   ",
"             ...                          ....                  ",
"             ...                          .....                 ",
"             ...                           .....                ",
"             ...                            ....                ",
"             ...                             ...                ",
"             ...                             ....               ",
"             ...                             ....               ",
"             ...                              ...               ",
"             ...                              ...               ",
"             ...                              ....              ",
"             ...                              ....              ",
"             ...                               ...              ",
"             ...                               ...              ",
"             ...                               ...              ",
"             ...                              ....              ",
"             ...                              ....              ",
"             ...                             ....               ",
"             ...                             ....               ",
"             ...                             ...                ",
"             ...                            ....                ",
"             ...                            ....                ",
"             ...                            ...                 ",
"             ...                           ....                 ",
"             ...                          .....                 ",
"             ...                          ....                  ",
"             ...                         ....                   ",
"             ...                         ....                   ",
"             ...                        ....                    ",
"             ...                       .....                    ",
"             ...                       ....                     ",
"             ...                      ....                      ",
"             ...                     .....                      ",
"             ...                    .....                       ",
"             ...                 ........                       ",
"             ...       ................                         ",
"             .........................                          ",
"             .......................                            ",
"             ............                                       ",
"                                                                ",
"                                                                ",
"                                                                ",
"                                                                ",
"                                                                "
};
