/* XPM */
static char *c41897e11434499886afa3a63139d4d9eGzEeK8hSTxNAx7C[] = {
/* columns rows colors chars-per-pixel */
"64 64 127 2 ",
"   c #040403",
".  c #0B0907",
"X  c #0B0F0D",
"o  c #100E0A",
"O  c #0C110F",
"+  c #16130E",
"@  c #0F1412",
"#  c #111714",
"$  c #131916",
"%  c #161C18",
"&  c #1D211B",
"*  c #21251E",
"=  c #1E2621",
"-  c #232720",
";  c #242A23",
":  c #2A2E25",
">  c #2B3027",
",  c #2D332A",
"<  c #34372B",
"1  c #383629",
"2  c #31392E",
"3  c #3D3C2E",
"4  c #2C3830",
"5  c #343E33",
"6  c #3E3E30",
"7  c #33373A",
"8  c #403728",
"9  c #423D2F",
"0  c #3D4436",
"q  c #36453B",
"w  c #3C4438",
"e  c #3D483D",
"r  c #454132",
"t  c #4D4534",
"y  c #4D4837",
"u  c #43493B",
"i  c #4E4938",
"p  c #504432",
"a  c #504A37",
"s  c #514C3A",
"d  c #5B4F3A",
"f  c #4E513F",
"g  c #58543F",
"h  c #3F4E42",
"j  c #404E42",
"k  c #454B4F",
"l  c #4E5242",
"z  c #4C574C",
"x  c #525543",
"c  c #5B5641",
"v  c #5C5842",
"b  c #50574A",
"n  c #555B4B",
"m  c #585F4D",
"M  c #515D51",
"N  c #6C5E45",
"B  c #5A624F",
"V  c #576457",
"C  c #5C6353",
"Z  c #5F6B5D",
"A  c #6E6046",
"S  c #66614A",
"D  c #69644C",
"F  c #706247",
"G  c #746449",
"H  c #78674C",
"J  c #686450",
"K  c #6F6A57",
"L  c #616958",
"P  c #706A57",
"I  c #746E5B",
"U  c #75705E",
"Y  c #595E61",
"T  c #62686C",
"R  c #6B7A6F",
"E  c #7C7761",
"W  c #767B68",
"Q  c #7A7F6F",
"!  c #7F7F7A",
"~  c #85755A",
"^  c #748275",
"/  c #7D887C",
"(  c #978C77",
")  c #968F7D",
"_  c #90907F",
"`  c #9A937E",
"'  c #7F8689",
"]  c #848E82",
"[  c #8E8E88",
"{  c #8A9386",
"}  c #8D968A",
"|  c #8F998C",
" . c #9D9580",
".. c #939B90",
"X. c #9C9D97",
"o. c #A39B87",
"O. c #A59E8A",
"+. c #A89E89",
"@. c #98A095",
"#. c #A7A18E",
"$. c #ACA38F",
"%. c #ADA491",
"&. c #B0A795",
"*. c #B0A896",
"=. c #B4AD9C",
"-. c #B7B09F",
";. c #B7B0A0",
":. c #BAB4A5",
">. c #BCB7A9",
",. c #BCB8AA",
"<. c #C0BCAF",
"1. c #C0BCB0",
"2. c #C6C2B7",
"3. c #C8C6BB",
"4. c #C8C7BB",
"5. c #C8C7BC",
"6. c #C9C8BE",
"7. c #CBCBC2",
"8. c #C9CDC6",
"9. c #CECFC7",
"0. c #D0D0C8",
"q. c #D2D3CE",
"w. c #D3D5D0",
"e. c #D6D7D1",
"r. c #DADBD7",
"t. c #D7DEDB",
"y. c #DBDDDA",
/* pixels */
"9  . . . . . . . . . . . . . . . . . . . . . . . . . . . . . . . . . . . .`  . . . . . . . . . . . . . . . .`  . . . . . . . .r ",
"y :.:.:.:.:.:.:.:.:.:.:.:.:.:.:.:.:.:.:.:.:.:.:.:.:.:.:.:.:.:.:.:.:.:.:.:.:.:.:.:.:.:.:.:.:.:.:.:.:.:.:.:.:.:.:.:.:.:.:.:.:.:.s ",
"y :.:.:.+ t t t t t t t p t t t t t t t t t p t t t p t t t t t p t t t t t t p t p t t t t t t t t t t t t t t t t 8 X :.:.:.s ",
"y :.:.:.+ F G G G G G G G G G G G G G G G G G G G G G G G G G G G G G G G G G G G G G G G G G G G G G G G G G G G G d o :.:.:.s ",
"t :.:.:.+ F G G G G G G G G G G G G G G G G G G G G G G G G G G G G G G G G G G G G G G G G G G G G G G G G G G G G d o :.:.:.s ",
"y :.:.:.+ F G G G G G G G G G G G G G G G G G G G G G G G G ~ o.v A G G G G G G G G G G G G G G G G G G G G G G G G d o :.:.:.s ",
"y :.:.:.+ F G G G G G G G G G G G G G G G G G G G G G G ~ 6.7.*.=.E g A G G G G G G G G G G G G G G G G G G G G G G d o :.:.:.s ",
"y :.:.:.+ F G G G G G G O.t.t.t.t.t.t.t.t.t.8.c F G ~ 3.9.` 6 f x P %.E c F G G O.t.t.t.t.t.t.t.t.t.8.c F G G G G G d o :.:.:.s ",
"y :.:.X.' ' G G G G G G ( -.S t t t t t t ) %.s F H 3.1.J x / { | { _ 9.%.r A G ( -.S t t t t t t ) %.s F G G G G G d o :.:.:.s ",
"y :.:.! k 7 G G G G G G ( -.D A G G G G G :.%.s F G 5.1.J l L C B m W w.%.6 N G ( -.D A G G G G G :.%.s F G G G G G d o :.:.:.s ",
"y :.:.! k 7 G G G G G G ( -.D A G G G G G :.$.s F G 5.1.J u n n n m Q w.%.6 N G ( -.D A G G G G G :.$.s F G G G G G d o :.:.:.s ",
"y :.:.! k 7 G G G G G G ( ;.D A G G G G G :.%.s F G 5.1.J C ] ] ] ] @.w.%.6 N G ( ;.D A G G G G G :.%.s F G G G G G d o :.:.:.s ",
"y :.:.! k 7 G G G G G G ( ;.D A G G G G G :.$.s F G 3.1.J C / / / / ..w.%.6 N G ( ;.D A G G G G G :.$.s F G G G G G d o :.:.:.s ",
"y :.:.! k 7 G G G G G G ( ;.D A G G G G G :.$.s F G 5.1.J m ^ ^ ^ ^ } w.%.6 N G ( ;.D A G G G G G :.$.s F G G G G G d o :.:.:.s ",
"y :.:.:.+ F G G G G G G ( ;.D A G G G G G :.$.s F G 3.1.J b R R R R ] w.%.3 N G ( ;.D A G G G G G :.$.s F G G G G G d o :.:.:.s ",
"y :.:.:.+ F G G G G G G ( -.D A G G G G G :.%.s F G 3.<.J 0 u w w w C w.%.6 N G ( -.D A G G G G G :.%.s F G G G G G d o :.:.:.s ",
"y :.:.:.+ F G G G G G G ( -.D A G G G G G :.%.s F G 3.<.J 5 5 5 5 5 m w.%.6 N G ( -.D A G G G G G :.%.s F G G G G G d o :.:.:.s ",
"y :.:.:.+ F G G G G G G ( ;.D A G G G G G :.$.s F G 5.1.J 2 2 2 2 2 b w.%.6 N G ( ;.D A G G G G G :.$.s F G G G G G d o :.:.:.s ",
"y :.:.:.+ F G G G G G G ( ;.D A G G G G G :.%.s F G 5.1.J < 5 5 w e Z w.$.6 N G ( ;.D A G G G G G :.%.s F G G G G G d o :.:.:.s ",
"y :.:.:.+ F G G G G G G ( ;.D A G G G G G :.$.s F G 5.1.J w j j j h Z w.%.6 N G ( ;.D A G G G G G :.$.s F G G G G G d o :.:.:.s ",
"y :.:.:.+ F G G G G G G ( ;.D A G G G G G :.%.s F G 3.1.J 5 q q q q V w.%.6 N G ( ;.D A G G G G G :.%.s F G G G G G d o :.:.:.s ",
"y :.:.:.+ F G G G G G G ( =.D A G G G G G :.%.s F G 3.1.J 5 5 5 5 5 M w.$.6 N G ( =.D A G G G G G :.%.s F G G G G G d o :.:.:.s ",
"y :.:.:.+ F G G G G G G ( ;.D A G G G G G :.%.s F G 3.1.J 2 4 4 4 4 z w.%.6 N G ( ;.D A G G G G G :.%.s F G G G G G d o :.:.:.s ",
"y :.:.:.+ F G G G G G G ( -.D A G G G G G :.%.s F G 5.1.J , ; = & & 5 w.%.6 N G ( -.D A G G G G G :.%.s F G G G G G d o :.:.:.s ",
"y :.:.:.+ F G G G G G G ( ;.D A G G G G G :.%.s F G 3.1.J ; % % % % 2 w.%.6 N G ( ;.D A G G G G G :.%.s F G G G G G d o :.:.:.s ",
"y :.:.:.+ F G G G G G G ( -.D A G G G G G :.$.s F G 3.1.J - $ $ $ $ , w.%.6 N G ( -.D A G G G G G :.$.s F G G G G G d o :.:.:.s ",
"y :.:.:.+ F G G G G G G ( -.D A G G G G G :.%.s F G 3.1.J * # # # # , w.%.6 N G ( -.D A G G G G G :.%.s F G G G G G d o :.:.:.s ",
"y :.:.:.+ F G G G G G G ( ;.D A G G G G G :.$.s F H 3.1.J * @ @ @ @ > w.%.6 N G ( ;.D A G G G G G :.$.s F G G G G G d o :.:.:.s ",
"t :.:.:.+ F G G G G G G ( ;.D A G G G G G :.%.s F G 3.1.J & @ @ @ @ : w.%.6 N G ( ;.D A G G G G G :.%.s F G G G G G d o :.:.:.s ",
"y :.:.:.+ F G G G G G G ( ;.D A G G G G G :.$.s F G 5.1.J & O O O O : w.%.6 N G ( ;.D A G G G G G :.$.s F G G G G G d o :.:.:.s ",
"y :.:.:.+ F G G G G G G ( ;.D A G G G G G :.%.s F G 3.1.J & X X X X ; w.%.6 N G ( ;.D A G G G G G :.%.s F G G G G G d o :.:.:.s ",
"y :.:.:.+ F G G G G G G ( ;.D A G G G G G :.$.s F G 3.1.J & X X X X ; w.%.6 N G ( ;.D A G G G G G :.$.s F G G G G G d o :.:.:.s ",
"i :.:.:.+ F G G G G G G ( ;.D A G G G G G :.%.s F G 3.1.J & X X X X * q.%.6 N G ( ;.D A G G G G G :.%.s F G G G G G d o :.:.:.s ",
"y :.:.:.+ F G G G G G G ( >.1.1.1.1.1.1.1.1.%.s F G %.#.o.o.o.o.o.o.o.o.` 6 N G ( ;.,.,.,.,.,.,.,.,.+.s F G G G G G d o :.:.:.i ",
"y :.:.:.+ F G G G G G G F N N N N N N N N A A A G G F F F F F F F F F F F G G G F F F F F F F F F F F F G G G G G G d o :.:.:.s ",
"y :.:.:.+ F G G G G G G G G G G G G G G G G G G G G G G G G G G G G G G G G G G G G G G G G G G G G G G G G G G G G d o :.:.:.s ",
"y :.:.:.+ F G G G G G G G G G G G G G G G G G G G G G G G F F G G G G G G G G G G G G G G G G G G G G F G G G G G G d o :.:.:.s ",
"y :.:.:.+ F G G G G G G ( =.o.O.O.O.O.O.O.O.O.O.O.O.O.O.*.I t G G G :.#.O.O.O.O.O.O.O.O.O.O.O.O.O.O.&.3 N G G G G G d o :.:.:.s ",
"y :.:.:.+ F G G G G G G ( %.3 N G G G G G G G G G G G ( :.I t G G G :.K a G G G G G G G G G G G G :.&.3 N G G G G G d o :.:.:.s ",
"i :.:.:.+ F G G G G G G ( %.3 N G G G G G G G G G G G ( :.I t G G G :.P a G G G G G G G G G G G G :.&.3 N G G G G G d o :.:.:.s ",
"t :.:.:.+ F G G G G G G ( %.3 N G G G G G G G G G G G ( :.I t G G G :.P a G G G G G G G G G G G G :.*.3 N G G G G G d o :.:.:.i ",
"y :.:.:.+ F G G G G G G ( %.3 N G G G G G G G G G G G ( :.I t G G G :.P s G G G G G G G G G G G G :.*.3 N G G G G G d o :.:.:.s ",
"y :.:.:.+ F G G G G G G ( %.3 N G G G G G G G G G G G ( :.I t G G G :.P a G G G G G G G G G G G G :.&.3 N G G G G G d o :.:.:.s ",
"y :.:.:.+ F G G G G G G ( %.3 N G G G G G G G G G G G ( :.U t G G G :.P a G G G G G G G G G G G G :.*.3 N G G G G G d o :.:.:.s ",
"y :.:.:.+ F G G G G G G ( %.3 N G G G G G G G G G G G ( :.I t G G G :.P a G G G G G G G G G G G G :.&.3 N G G G G G d o :.:.:.s ",
"y :.:.:.+ F G G G G G G ( %.3 N G G G G G G G G G G G ( :.I t G G G :.P a G G G G G G G G G G G G :.*.3 N G G G G G d o :.:.:.s ",
"y :.:.:.+ F G G G G G G ( %.3 N G G G G G G G G G G G ( :.I t G G G :.P a G G G G G G G G G G G G :.*.3 N G G G G G d o :.:.:.s ",
"y :.:.:.+ F G G G G G G ( %.3 N G G G G G G G G G G G ( :.I t G G G :.P y G G G G G G G G G G G G :.&.3 N G G G G G d o :.:.:.s ",
"y :.:.:.+ F G G G G G G ( %.3 N G G G G G G G G G G G ( :.I t G G G :.P y G G G G G G G G G G G G :.&.3 N G G G G G d o :.:.:.s ",
"y :.:.:.+ F G G G G G G ( %.3 N G G G G G G G G G G G ( :.I t G G G :.P a G G G G G G G G G G G G :.*.3 N G G G G G d o :.:.:.s ",
"y :.:.:.+ F G G G G G G ( %.3 N G G G G G G G G G G G ( :.I t G G G :.P a G G G G G G G G G G G G :.&.3 N G G G G G d o :.:.:.s ",
"y :.:.[ T Y G G G G G G ( %.3 N G G G G G G G G G G G ( :.I t G G G :.P a G G G G G G G G G G G G :.&.3 N G G G G G d o :.:.:.s ",
"y :.:.! k 7 G G G G G G ( %.3 N G G G G G G G G G G G ( :.I t G G G :.P y G G G G G G G G G G G G :.&.3 N G G G G G d o :.:.:.s ",
"i :.:.[ T Y G G G G G G ( %.3 N G G G G G G G G G G G ( :.I t G G G :.P y G G G G G G G G G G G G :.&.3 N G G G G G d o :.:.:.s ",
"y :.:.! k 7 G G G G G G ( %.3 N G G G G G G G G G G G ( :.I t G G G :.P a G G G G G G G G G G G G :.&.3 N G G G G G d o :.:.:.s ",
"y :.:.! k 7 G G G G G G ( %.3 N G G G G G G G G G G G ( :.I t G G G :.P a G G G G G G G G G G G G :.*.3 N G G G G G d o :.:.:.s ",
"y :.:.! k 7 G G G G G G ( %.3 N G G G G G G G G G G G ( :.I t G G G :.P a G G G G G G G G G G G G :.&.3 N G G G G G d o :.:.:.s ",
"y :.:.:.+ F G G G G G G ( :.0.y.y.y.y.y.y.y.y.y.y.y.y.y.2.K t G G G :.1.r.y.y.y.y.y.y.y.y.y.y.y.y.e.%.< N G G G G G d o :.:.:.s ",
"y :.:.:.+ F G G G G G G N 3 1 1 1 1 1 1 1 1 1 1 1 1 1 1 1 3 N G G G s 1 1 1 1 1 1 1 1 1 1 1 1 1 1 1 1 y F G G G G G d o :.:.:.s ",
"y :.:.:.+ F G G G G G G G G G G G G G G G G G G G G G G G G G G G G G G G G G G G G G G G G G G G G G G G G G G G G d o :.:.:.s ",
"y :.:.:.+ F G G G G G G G G G G G G G G G G G G G G G G G G G G G G G G G G G G G G G G G G G G G G G G G G G G G G d o :.:.:.s ",
"y :.:.:.+ F G G G G G G G G G G G G G G G G G G G G G G G G G G G G G G G G G G G G G G G G G G G G G G G G G G G G d o :.:.:.s ",
"y :.:.:.+ F G G G G G G G G G G G G G G G G G G G G G G G G G G G G G G G G G G G G G G G G G G G G G G G G G G G G d o :.:.:.s ",
"y :.:.:..                                                                                                             . :.:.:.s "
};
