/* XPM */
static char *f51e0812feef42dfbb19c4f8e22f525fsF65Tcyv56FWLtt5[] = {
/* columns rows colors chars-per-pixel */
"64 64 2 1 ",
"  c black",
". c white",
/* pixels */
"                                                                ",
"                                                                ",
"                                                                ",
"                                                                ",
"                                                                ",
"                                                                ",
"                                                                ",
"                                                                ",
"                                                                ",
"                                                                ",
"                                  .................             ",
"                               ....................             ",
"                             ......................             ",
"                           .........            ...             ",
"                         ........               ...             ",
"                        .......                 ...             ",
"                      .......                   ...             ",
"                     ......                     ...             ",
"                   .......                      ...             ",
"                   .....                        ...             ",
"                   ....                         ...             ",
"                  ....                          ...             ",
"                 .....                          ...             ",
"                .....                           ...             ",
"                ....                            ...             ",
"                ...                             ...             ",
"               ....                             ...             ",
"               ....                             ...             ",
"               ...                              ...             ",
"               ...                              ...             ",
"              ....                              ...             ",
"              ....                              ...             ",
"              ...                               ...             ",
"              ...                               ...             ",
"              ...                               ...             ",
"              ....                              ...             ",
"              ....                              ...             ",
"               ....                             ...             ",
"               ....                             ...             ",
"                ...                             ...             ",
"                ....                            ...             ",
"                ....                            ...             ",
"                 ...                            ...             ",
"                 ....                           ...             ",
"                 .....                          ...             ",
"                  ....                          ...             ",
"                   ....                         ...             ",
"                   ....                         ...             ",
"                    ....                        ...             ",
"                    .....                       ...             ",
"                     ....                       ...             ",
"                      ....                      ...             ",
"                      .....                     ...             ",
"                       .....                    ...             ",
"                       ........                 ...             ",
"                         ................       ...             ",
"                          .........................             ",
"                            .......................             ",
"                                       ............             ",
"                                                                ",
"                                                                ",
"                                                                ",
"                                                                ",
"                                                                "
};
