/* XPM */
static char *_c29fa667f514a0ce205ab0fc9a348dbtMKFlpLUAUAYGmFa[] = {
/* columns rows colors chars-per-pixel */
"64 64 2 1 ",
"  c black",
". c white",
/* pixels */
"                                                                ",
"                                                                ",
"                                                                ",
"                                                                ",
"                                                                ",
"                                                                ",
"                                                                ",
"                                                                ",
"                                                                ",
"                                                                ",
"          ................................                      ",
"          ................................                      ",
"          ................................                      ",
"          ...                                                   ",
"          ...                                                   ",
"          ...                                                   ",
"          ...                                                   ",
"          ...                                                   ",
"          ...                                                   ",
"          ...                                                   ",
"          ...                                                   ",
"          ...                                                   ",
"          ...                                                   ",
"          ...                                                   ",
"          ...                                                   ",
"          ...                                                   ",
"          ...                                                   ",
"          ...                                                   ",
"          ...                                                   ",
"          ...                                                   ",
"          ...                                                   ",
"          ...                                                   ",
"          ...                                                   ",
"          ...                                                   ",
"          .........................                             ",
"          .........................                             ",
"          .........................                             ",
"          ...                                                   ",
"          ...                                                   ",
"          ...                                                   ",
"          ...                                                   ",
"          ...                                                   ",
"          ...                                                   ",
"          ...                                                   ",
"          ...                                                   ",
"          ...                                                   ",
"          ...                                                   ",
"          ...                                                   ",
"          ...                                                   ",
"          ...                                                   ",
"          ...                                                   ",
"          ...                                                   ",
"          ...                                                   ",
"          ...                                                   ",
"          ...                                                   ",
"          ................................                      ",
"          ................................                      ",
"          ................................                      ",
"                                                                ",
"                                                                ",
"                                                                ",
"                                                                ",
"                                                                ",
"                                                                "
};
