/* XPM */
static char *_fea84097cba4bb29ec2525ab8014e6a[] = {
/* columns rows colors chars-per-pixel */
"64 64 99 2 ",
"   c #1C0304",
".  c #1F0809",
"X  c #200708",
"o  c #250B0D",
"O  c #290D0F",
"+  c #250E10",
"@  c #2A0E10",
"#  c #291214",
"$  c #2E171B",
"%  c #321214",
"&  c #351C1D",
"*  c #3C1C1B",
"=  c #3F201E",
"-  c #3D1F20",
";  c #3D2021",
":  c #44221E",
">  c #432524",
",  c #492625",
"<  c #462827",
"1  c #4A2926",
"2  c #4C2C2A",
"3  c #532D2B",
"4  c #5A2E2C",
"5  c #4E322E",
"6  c #53312E",
"7  c #5B322F",
"8  c #4D3330",
"9  c #543431",
"0  c #5C3531",
"q  c #573834",
"w  c #5C3A34",
"e  c #5E3D38",
"r  c #65322E",
"t  c #69362F",
"y  c #633631",
"u  c #6A3731",
"i  c #633A35",
"p  c #6C3C34",
"a  c #653F38",
"s  c #6A3F38",
"d  c #713E36",
"f  c #6E4037",
"g  c #654039",
"h  c #6D423A",
"j  c #6E483F",
"k  c #714037",
"l  c #73443B",
"z  c #79463C",
"x  c #75493E",
"c  c #7A4A3E",
"v  c #754C41",
"b  c #7B4E41",
"n  c #775044",
"m  c #7D5145",
"M  c #7E5548",
"N  c #7F584B",
"B  c #804C3F",
"V  c #814E41",
"C  c #825143",
"Z  c #835143",
"A  c #815244",
"S  c #845345",
"D  c #835446",
"F  c #875546",
"G  c #865547",
"H  c #875647",
"J  c #805749",
"K  c #875748",
"L  c #885648",
"P  c #895748",
"I  c #82584A",
"U  c #855A4A",
"Y  c #855B4D",
"T  c #875B4C",
"R  c #875D4D",
"E  c #8B5949",
"W  c #8C5B4A",
"Q  c #8E5C4B",
"!  c #8B5B4C",
"~  c #885D4D",
"^  c #8D5D4C",
"/  c #905E4E",
"(  c #905F4E",
")  c #8C5F50",
"_  c #905F50",
"`  c #8E604F",
"'  c #92604F",
"]  c #8E6151",
"[  c #926150",
"{  c #906352",
"}  c #946251",
"|  c #9A6654",
" . c #966856",
".. c #9D6956",
"X. c #946958",
"o. c #9C6D5B",
"O. c #9D6D5B",
"+. c #A16A57",
"@. c #A36C59",
/* pixels */
"9 q w w g g h g g g e e 9 1 , , , 6 q w w w w w i g h v v v v v v v j x v v v h g e w q 6 3 5 2 9 6 9 5 8 8 &   & 9 e e w e w 9 ",
"T R I I J J J J I J M D J U U ~ R R E E U K U K A m m b b m m M M M M m m M M J D A m b b m D J J I T ~ [ O.[   w A A m m b J U ",
"h l l l l l l k h h k l k l l l l k k k k k k k k k k k f s s k x x l l x x x x c c b x x c b b b x v v h T ^   9 i a s h h h h ",
"A A A A A D A A m m A A A A D A A A S A C C C A C b c b C c x c b m b m m m A A A G G G G G L K G A b b v T [   9 s l b b b b A ",
"A G A b b b b b b b b c b V V V V V b V V C G G C C C S C c V b b b b b b b m A A D G G D A m b x l h h h h l   9 i a h h b b C ",
"A G W ^ ' [ ' [ [ [ [ ^ W ( [ } [ [ [ ^ ^ ^ ( ^ W Q W E ^ ( E G G G C A A G G G G K G K D A G K E ^ ^ J v v v   , 0 h x c x v b ",
"( ( [ ' ^ W ^ ( ( ( [ [ ( ^ E ! ^ [ [ | | | ..| | } [ ^ L L E G S A G A A G G G E E E E E U U U ! E E A v J [ . w l b A L K E W ",
"G K L E ^ ^ ( ' ^ ^ E E E ! Q E E W W W ( } } [ [ [ ' ( ( ^ G G E G G L E K E ~ ~ E ! U D m b b b m m m x m ~   q l b C A b m A ",
"E W ^ ^ ' ' ( [ | | | | ' ^ ( ( ( W W Q Q W ( Q ' } } [ [ [ [ ^ E ^ ^ ^ ^ ' ^ ' ' [ ` ^ ~ ~ T J m m v h i i i   w l m G E E U G ",
"b A A S A A C C A G E W E G E E ^ ( ( ( ( ( ( ( W ( ( ^ Q E E E W W E ! Q ^ } } } [ [ ^ ^ ~ ! ! ~ ^ ^ ^ J ] ^ O 3 0 i a h l x b ",
"b b b b b b c c c b c c c c b b C C C C C G E E G E E E W W W W E W E W W E E ( ' [ [ ^ ! E K K A G G J m ] [ + q i s k l x c b ",
"b m m A m b b c c c c c c b b b b b m c A A C V V S C C c c V C V C b C C A C b b m m m D K U J m b x h y i a o q s s l x x b b ",
"b b b b v b b x l l x c c c b b c c c c c b b b c c c c c c c c c c c c b b b m m C C m m b C A J D D D M ] ] @ 0 p s l x x b b ",
"x l l l l l l k k l l k k k h h h h s s k k k k k k l l l x x c z z x c c c c c c c b b b b b b b b m J T X. .@ q p p h l k x x ",
"9 q w i i i i i w 0 q 0 q 0 0 0 0 0 0 i i i a s s s i i i i y 0 0 0 w 0 0 i i i i s a s h h h h h h h i w q q   > 9 9 3 9 2 9 9 ",
"h i 9 w w w w q w w e g l v b v g ;   1 w e w w w w q w i a g h s a a i w i w w w q w w e 0 w e w i g a i e w w a h h h h a g a ",
"[ ] ] | |  . . . .X. .]  .] ]  .O.M   J  .] ~ ) E J D D D K D D A m A D K E E E E E W W W ^ ^ W ^ ~ ) ! W Q ^ E E ^ } [ ( [ [ [ ",
"x x c x b b b x v v x v h h h h N m   h v h h h x x x l l l l k l l l k k f s s s s p p p s k k k k k k k k s k k k c x l l l x ",
"C b b A A D G D A m m m b v l h M v   i h h v v m m m m b b b b b b c x x c b b x x l x l x x x c c c c c c c c m b C G D C A A ",
"G G G D G E E ! E E K K J b v h M h   0 a a h h l l v v b b b b b b m A m m b b c c c c c m G G A G A D A A A C m m A A C A G G ",
"c c b b b b b b m A D G A b v v b w   1 3 7 a l b A J K G G G G G A D A A b b b b c c b c c b V C b b V b V V b c c c c z c c z ",
"K E L G G A D G J ! ^ ) ) T m h i >   7 h h x b m m D G K G E W E E U K D D A A A C C m A G E E E E K G A A A C C C C C m G K G ",
"E U E K U K K K E U U ! ~ U D v T a   3 l b K K U K E ! E ^ ^ ^ [  . . .[ [ [ [ ^ ^ ^ ^ ^ ~ ` ^ ~ K U U K U K G G D D U E U U U ",
"[ [ ` ` ^ ^ U U E K U ! ! T J b ~ h   > 3 7 a h x b m m D J D G D D D D D K G D K E G E E E E E ^ ^ R ~ ^ ` ] ] ] [ ` ^ ^ [ [ [ ",
"[ [ [ ] ] ^ ! K U K K J J D m b ~ h   2 m A ! ^ ^ [ } |  .|  ...|  .| [ [ ^ [ [ ^ [ E E E L E E G G E ~ ] ] ] ] ] [ [ [ [ [ [ [ ",
"` ` ] ^ ^ ] ^ ^ ~ K J J J m b v J v   1 M ~ ] ^ ) [ } } [ [ } } [ [ ! E ! E G G K A C C C C C C A U U U G G G K ~ ~ ~ ^ ^ ^ ^ ^ ",
"^ ^ ~ ~ ~ U G K J J M m b v l h b b   1 l b U U K K K K K K K G G A G G C C C b C V c c V C G U E ~ ^ ] ] ] ] ~ E ~ ~ ~ E ~ ! ~ ",
"K E ! ! U K K K U ~ ~ ~ J b h 0 0 q   - 3 0 h l b m D K K E E K E G K G S C C V b c c b C b b b C D E K K K U K D A D U D U G U ",
"D A G K K K D D J m m m J M m v v b   , v x m J U ! ^ ^ U ~ E K E G G E K E G K E A A D A A m m b b b c c b b c c b b b m m M A ",
"K U K J K U U J J D m m b v v l l ] . > h h v v J U ~ ! A U m m J b m b m A A A D A A D A m b b b b b b b m m m m m M m D D U J ",
"D m A J D m m m m m b v v v l h h [ o * w a h h l x v v l x x x x x l x x x x x l l l l l l l x x x x x x v x v b b b m A M m D ",
"x x x b b b b b b v v h h h v v v  .@ , N m M m m M M M m m m b b c x x x x x l l l l l k k k d k k l l l x x x x l k k x x x x ",
"s s h h h s s a i a a i i i 0 i i a . & y y i p p s s i i i i i y 0 y y y 0 7 3 3 3 3 3 2 3 2 3 3 3 3 3 3 3 6 7 0 7 7 r y i a s ",
"> > > ; ; > > > > > > > , > > 1 1 > 1 2 2 < < > < < 1 1 1 1 1 > &   > 6 6 y i i i i i a s s h a a 0 0 0 0 7 6 6 6 6 2 > > > > > ",
"^ ^ ^ E G S G G E E E E ^ ^ [ [ ^ ^ } | [  .]  .] ] [ ] ] ] [ | l O k c c c V V C A G S A A C S S S L G G G L W Q E G L E E ^ E ",
"d d d p d s d d k l k l c c c b C C C b c x x l h s s s h h l [ i O y y y p p s p p y y y y y u p p s s s s s s d k k k k k k d ",
"k d d d d s d d d d p d d k l x z z l l l k k k k l l l l k s A 3 O 7 7 y s f h s s s k s d d k k l l l k k k k k k k k k l l k ",
"c c z z z l l d p p p p p s s d d d d d p p y y y y i y y 0 4 a , o 3 4 y h l l l k k k k k l x x x c x l l l x c x l x x c c z ",
"V b b b c c c c b c c c c c c c b b b b c z z x x x c b b b l ^ q O 7 7 y i s k x c b b V V A L E E ! ! W E E E E K A A A C C C ",
"C C C S G S C V V V c c c b V V V b c V V V c V b b c b b b l ] 0 @ i k x b A A A A S L W W W E G L G G G G G G L E G S C C C C ",
"S C C V V C V V V B c c V C C S S V S S S G G V C V V V b c l ! q @ s x c m G K G K G E E W E ^ ^ [ [ [ ( ^ ^ ^ W E G E E E G G ",
"C V B B V V B c B z c z B V V V V V c c c c V V b b b b b h i h ,   > 3 0 a k c b b b b m b b C C A G G G G G G G L G G C C C C ",
"E G G G C V V V c B V C C V C S S L W S W S W W W L G G G A m ^ a o i l x m A K G G A D K E ^ ^ ^ ^ ^ ^ ^ ^ ^ ! ^ ^ ^ W E W E E ",
"E W W G G G G C V S V G C G S G W W G W S W G ( W L L G A b b E a o i k x b A A A J K E E K U E E L E ! ^ ^ ^ _ ! ^ ^ ^ E E E G ",
"W E G K E G b S S b S C G A S G S ( S L V L V G G S A C b c l A i O s k l b m D K ! ! ! E ^ ^ ( ( [ [ [ ( _ _ ^ ^ _ ! ( ^ E W ! ",
"C S S G G V V V V z V c V c z z z c z c z z l l k k l l h i 0 0 , @ h k k x b m b b b A D K K E E G G E G G G S S A V C C V S S ",
"z c c c c z l z z l z z z z z z z z B c c c b V C S K K A b v ! h X 3 4 4 7 y s h l x x x x c c c c c c c c c c c l c c x z z l ",
"l l d l l l l d d d l l z z z z z z l l l l l x x l l x l h h J x @ p h x x b b b b m m b b m b b b b c c c c x k l k k l l l l ",
"k k d d d p p t u p p p s d d k k l k k l k k x c x l l h h s J K % s h h l x x x c x c c c c c x l l x x l k k l l l l k k k k ",
"s s p p t 7 4 4 r t p p u u p p s p p d s k k h s s p s p s s b b % h l h h h h h h h h h h h k l l k k k l k l l l k k k k s p ",
"> - $ + # & ; - ; > < 2 1 2 6 6 6 6 2 2 6 6 9 9 9 q w 9 6 q 9 9 2 = 1 2 6 9 9 q q 0 7 6 q q 6 6 3 3 3 3 3 6 6 6 6 6 6 6 6 2 > > ",
"+...| q *  ............. . .......@.@.@.@... .[ ] [ ..O.O.O.O.O.O. . . . . . . .| } [ ^ [ } [ [ [ [  . ...@.@.@.@.@.@.@.@.@.@.@.",
"N T O.x * v v v n n v v v v v b b b m b b v x x c x x x x x k k l x l x x x x l l k k f k s s s s s s k k k k k h l l x v m M M ",
"v v X.v * x x v v v v v v m m v b b m v b v v b b m m m m b x x x x b b b b b b b b c c x x x x x x x b v x x x x x x x v v b v ",
"a g J a * x v v v n v v m M M I I I I I I I I I K U U U G D b b c c c m m m A A D C C A A b m m b b b v x l h s i i i i i i a i ",
"v j v 3 : h v v v v b v b m m m M J J J D J J U K U U E ^ ^ ~ E K G G E ~ ^ ^ [ [ ( ^ ^ ~ ~ ] ] ] ] ] ~ ~ I T R R R T T I T T M ",
"v v T h * s h v v b A J U U ~ ~ U ~ ~ ^ [ [ ^ ] [ [ [ ` [ ^ _ ~ ^ ^ ! E ~ ' [ | [ [ | } [ [ [ [ [ [ ] [ [ ~ U R I I M M M m m b ",
"v v R g * 0 h v m J M U ~ ~ ] ~ ] ] ] ]  . . . . . . .[ [ ' ^ ^ ^ ^ L E E ! ^ E ` ^ ^ [ [  .] [  . . .[ [ [ ` ~ ) ~ T R T I M m ",
"v l J h : h v R ~ T T ~ ) ) ] ` ] ] ] [  .| [  .[ [ [ | | [ ^ ^ [ ' E ^ ` ^ ^ ' ^ [  .[ [ ] [ } ] ] ^ ] ~ ~ ! D J I M M M m b v ",
"h a h 1 : h b J I J ~ T ~ ~ ~ ~ ] ` ~ ~ ^ ~ ~ ^ ~ ^ ^ ^ ] ` [ [ ^ ~ ^ ^ ' [ ^ | ^ [ ^ [ [ [ ^ E K U U D D A m m v v v v b m m v ",
"m M [ g * 3 i s l x b b b b m m D I T ~ ~ E E I E ~ U G J D K D b C m A A K A D D m K A A m m m D m D m D A A D M M J J U J U J ",
"I M  .h : h m m M M M M M m m m m m m m M M m b b c b x c b c x c c x c c b c c b b b m b b b m m J D J m D m m m b b b m J J J ",
"M m  .h * h m M I J J M m M m m m b v v x x l l s p s s s s k l l k l l l l l l l x k k l x x l c c x x x l x x x x x b m M T I ",
"0 0 0 , @ 7 0 0 0 y i i y 0 0 0 a i i y y y 0 0 q 6 2 1 , , 1 3 6 0 i i i y 0 7 3 2 2 3 6 7 y i i y y y i y y i i i y y q 0 0 0 "
};
