/* XPM */
static char *_147e6cfd1ba417de9072933026ab4126yFf1Mi0CIbEkY3f[] = {
/* columns rows colors chars-per-pixel */
"64 64 3 1 ",
"  c black",
". c #040000",
"X c #FBF4F4",
/* pixels */
"                                                                ",
"                                                                ",
"                                                                ",
"                                                                ",
"                                                                ",
"                                                                ",
"                                                                ",
"                                                                ",
"                                                                ",
"                                                                ",
"                                                                ",
"                                                                ",
"                                                                ",
"                                                                ",
"                 ...                      ...                   ",
"                 ...                      ......                ",
"                 ...                      ......                ",
"                 XXXXXX                   .XXX..                ",
"                 XXXXXX                   .XXX..                ",
"                 XXXXXX                   .XXX..                ",
"                 XXX  XXX                 .XXX...               ",
"                 XXX  XXX              ....XXX...               ",
"                 XXX  XXX              ....XXX...               ",
"                 XXX    XXX            ....XXX...               ",
"                 XXX    XXX            ....XXX...               ",
"                 XXX    XXX            ....XXX...               ",
"                 XXX      XXX          ....XXX...               ",
"                 XXX      XXX          ....XXX...               ",
"                 XXX      XXX          ....XXX..                ",
"                 XXX        XXX        ....XXX..                ",
"                 XXX        XXX        ....XXX..                ",
"                 XXX        XXX        ....XXX..                ",
"                 XXX          XXX      ....XXX..                ",
"                .XXX          XXX      ....XXX..                ",
"                .XXX          XXX      ....XXX..                ",
"                .XXX            XXX    ....XXX..                ",
"               ..XXX            XXX    ....XXX..                ",
"               ..XXX            XXX    ....XXX..                ",
"                .XXX              XXX  ....XXX..                ",
"                .XXX              XXX   ...XXX....              ",
"                .XXX              XXX   ...XXX....              ",
"                 XXX                XXX ...XXX....              ",
"                 XXX                XXX ...XXX....              ",
"                 XXX                XXX   .XXX....              ",
"                 XXX                  XXX .XXX...               ",
"                 XXX                  XXX .XXX...               ",
"                 XXX                  XXX .XXX...               ",
"                 XXX                    XXXXXX...               ",
"                 XXX                    XXXXXX...               ",
"                 XXX                    XXXXXX...               ",
"                 ...                       ......               ",
"                 ...                        .....               ",
"                 ...                                            ",
"                                                                ",
"                                                                ",
"                                                                ",
"                                                                ",
"                                                                ",
"                                                                ",
"                                                                ",
"                                                                ",
"                                                                ",
"                                                                ",
"                                                                "
};
