/* XPM */
static char *fc4f4b27a3a84267935ac7cf29d1ad20MJWZZDarE6UlwhXm[] = {
/* columns rows colors chars-per-pixel */
"64 64 12 1 ",
"  c black",
". c #1E1B16",
"X c #211C18",
"o c #25211B",
"O c #29221D",
"+ c #2E2821",
"@ c #322A23",
"# c #3B3229",
"$ c #3D342B",
"% c #493E33",
"& c #4B4035",
"* c #5A4D3F",
/* pixels */
"*********%%%%%*******************************%%%#%%***%#%*******",
"********%%@$$%*****************************%%%%##%%***%##%%*****",
"***%%$$$@@@$$$&&&&&&*******************%%%%%%###%%**&&$@@@@$%%%*",
"##@@@@@@@@$$$&&&&&&&&&&$%%%%%%%%%%%%%%%%%%%##@$$$&&&&&$$$@@@@@@@",
"@@@@@$$$$$$&&&&&&&&$@@@@@@@@@#############$$$$$&&&&&&&&#+++$$@@@",
"$$$$&&&&&&######++o@@@@@@@@@@@@@$%%%%%$$$$$$$&&&&&&&########+++$",
"##&&&&#########+++oo++##&&&&&&&&&&&&&&&&&&&&&&&&&&##############",
"###############+++########&&&&&&&&&&&&&&&&&#####################",
"                                                                ",
"********************************************%##%****************",
"*****************%%%%%%%%%%*****************%###@@%*************",
"************%%%%###########%%%%%%************%##@@@@@%%%%%%*****",
"%%%%%%%$$$$@#@@@@@@######@#######%%%************#@@@@@@@%%%%%%%%",
"@OOOOOOOOOOOOO@###%%%%%%%###@@@OO@##%%%&&&&&***&&&&@#####@OOOO@@",
"@@@@@@@@@@@@@$$&&*******%$$$$$$@@@@O@#$$$&&&&&&&&&&&&&#@@@@@@@@@",
"########&&&&&&&&&&&&****&&&&&&&$$$@@@OO@$$$&&&&&&&&&&&&&&&&&&&&&",
"############&&&&&&&&&&&&&&&&&&&&&&&$@@@OOO@$$&##############&&##",
"###############&&&&&&&&&&&&&&&&######+oooO@o+###################",
"#########################################++o+###################",
"                                                                ",
"***************%%%###%**************%###@@#%******%##%**********",
"****************%%#######%%%*********###@@@#%%%***%####%*##*****",
"*******************%###@@@@#%%%%******%%%##@#%%%%**%###@@XO@@$$*",
"@@@###%%**&&&&&&*****%%####@@@##%%%%****%%%%%##%%%%%&&@@@@OOOOOO",
"OOO@@@@@@@@@@$$&&&*******%#####@@####%%%***%%%%##%$$$$&&$$$@@OOO",
"&$$$@@OOOOOOOOO@@$$*********%%####@@####%%%**%%%$$@@$$$&&&&&&&&&",
"&&&&&&$$$$$@@@@@@@@@&&&********%%%%###@@@@###%&$$$$@@@$&&&&&&&&&",
"&&&&&&&&&&&&&&&$$@@@$$&&&&&&&&&&&&$$%%#@@@##@$&&&$@@@@$&#######&",
"#&&&&&&&&&&$+++++ooo+$&&&&&&&&&&&&$@@@OOO@@@$&&$$$@@o+##########",
"++++$$$$$$+oooooooo+++####&&&&$$@@OOOOO@@$&&&$$$@@o++#########++",
"ooooooooooooo+++++#########+++o.OOOO$$$$&&&$$@@@o+++#####++++ooo",
"++++++++++++#############++oooo.oo++###&$@ooooo++##+++oooooooooo",
"#########################+ooo+++########+ooo++#####+++oooo+++++#",
"                                                                ",
"************%%%####%%%%*************%%%#######%%****************",
"*******%%%%%###@@##%%%%**************%%%#@@@#######%************",
"%%%%########@@###%%********************%%%%%##@@@########$$$$$$%",
"@@@@@#@@@####%%%$&&&&&$$$$$%%%%%%**********%%%%%%@OOOOOOOO@@@@@@",
"@@@@@$$$%%%%%*&&&&&$$$$@@@@@@####%%%%********&&$$$$$$$$@@@@@@@@@",
"$$$$$$$$&&&&&&&&$$$@@@@@$$$$$$$######%%%%%*&&&&&&&&&&&##+++++$$$",
"#####&&&&&&&$$@O@@@@$$$$$&&&&&&&$$$#####$$$$$$$&&&##############",
"#######++ooo....oo+++#&&&&&&&&&&&&&&$$$$$@@@$$+++###############",
"####oo........o++########+++++$&&&&&&&$$$$$$+ooo++++############",
"###+oo...oo++###########+o.....++$&&&&&&&&$++++ooooo############",
"                                                                ",
"%%##%****************************%%#%%**************************",
"####%*&&&&$$$%%%%%%%%%%%*********%%####%****&&&&&&&&&&&&&&&&$%##",
"@@$$&&&&$$$$@@@@#########%%%*******%##@@@@@@$$$$$$$$$@@@@@@@@@@@",
"&&&&&&&&$@@@$$$$$$$$$%%#####%%*****&&$@@@@@@@@@@@@@ooooooooo@@$$",
"#######&@@$$$$&&&&&&&&&$$$@@@@$&&&&&&&&&&&$$$++++++++++#########",
"########+++##########&&&&&$$@@$&&&&&&&&&&#######################",
"                                                                ",
"%%%%%#######*****************%%###%%**************************%%",
"***%%%#########%*************$$@@@@@$$%***********&&&&&*********",
"**********########%******&&&&&&&$$@@@@$$$&&&&&&&&&&&&&&&&&******",
"###%*********%########*&&&&&&&&&&&$$$@@@@@@$$$$$$$$$$$$$$$$@@###",
"####%%%**********###@@@@@@$&&&&&&&###++ooooooooooooooooo@@@@@@@#",
"&@@@%%%***********&&$@@@@@@o#############++++++++++++++++++$$&&&",
"@@@@$$$&&&&&&&&&&&&&@@@ooooo##################################&$",
"ooo+&&&&&&&&$$$$$@@@oooooo##++++++++++++###################+++oo",
"+########&$$$$@@@@oooo####+++ooo.....oo++#############++++++oooo",
"#######+++oooo+++++######+oooooooooooo.oo####+++++++++oooooo++++",
"#######+oooo++++#########++++o+++##++oooo+##++++++oooooo++++++##",
"                                                                "
};
