/* XPM */
static char *_d2b04c6dd0f4e78ce577aa5ba145eaeUKS5jTX5wYOq9TJs[] = {
/* columns rows colors chars-per-pixel */
"64 64 2 1 ",
"  c black",
". c white",
/* pixels */
"                                                                ",
"                                                                ",
"                                                                ",
"                                                                ",
"                                                                ",
"                                                                ",
"                                                                ",
"                                                                ",
"                       ...                                      ",
"                       ...                                      ",
"                       ...                                      ",
"                       ...                                      ",
"                       ...                    ...               ",
"                       ...                    ...               ",
"                       ...                   ....               ",
"                       ...                  .....               ",
"                       ...                  .....               ",
"                       ...                 ......               ",
"                       ...                 ......               ",
"                       ...                .......               ",
"                       ...                .......               ",
"                       ...               .... ...               ",
"                       ...              ..... ...               ",
"                       ...              ....  ....              ",
"                       ...             ....   ....              ",
"                       ...             ....    ...              ",
"                       ...            ....     ...              ",
"                       ...            ....     ...              ",
"                       ...           ....      ...              ",
"                       ...           ....      ...              ",
"                       ...          ....       ...              ",
"                       ...          ....       ....             ",
"                       ...         ....        ....             ",
"                       ...        .....        ....             ",
"                       ...        ....         ....             ",
"                       ...        ...          ...              ",
"                       ...       ....          ...              ",
"                       ...       ....          ...              ",
"                       ...      ....           ...              ",
"                       ...      ....           ...              ",
"                       ...     .....           ...              ",
"                       ....    ....            ...              ",
"                       ....   .....            ...              ",
"                       ....   ....             ...              ",
"                        ...  ....              ...              ",
"                        ... .....             ....              ",
"                        ... ....              ....              ",
"                        ........              ....              ",
"                        .......               ....              ",
"                        ......                 ...              ",
"                        ......                 ...              ",
"                         ....                  ...              ",
"                         ...                   ...              ",
"                                                                ",
"                                                                ",
"                                                                ",
"                                                                ",
"                                                                ",
"                                                                ",
"                                                                ",
"                                                                ",
"                                                                ",
"                                                                ",
"                                                                "
};
