/* XPM */
static char *_aa31fcbed0340d2c48002dddcebea472r4Zu7Hkokm3szSJ[] = {
/* columns rows colors chars-per-pixel */
"64 64 83 1 ",
"  c #261A12",
". c #291E15",
"X c #2C2116",
"o c #2E2218",
"O c #31251A",
"+ c #352A1F",
"@ c #3A2C1F",
"# c #3B2E22",
"$ c #3E3225",
"% c #3F3328",
"& c #423426",
"* c #443927",
"= c #4C3926",
"- c #453629",
"; c #47392B",
": c #4C3B2C",
"> c #533E27",
", c #513E2C",
"< c #4E3E30",
"1 c #513F30",
"2 c #4D402D",
"3 c #54412D",
"4 c #5B442D",
"5 c #574C2F",
"6 c #594A2F",
"7 c #554231",
"8 c #5B4633",
"9 c #574A31",
"0 c #5D4934",
"q c #61472D",
"w c #62492F",
"e c #644C35",
"r c #694F35",
"t c #634D38",
"y c #684F38",
"u c #655135",
"i c #6B5033",
"p c #6D5133",
"a c #6A5037",
"s c #6C5336",
"d c #6B5435",
"f c #6B5735",
"g c #6B5737",
"h c #6D5437",
"j c #6B5933",
"k c #6B5835",
"l c #6D5935",
"z c #675038",
"x c #695139",
"c c #6D5239",
"v c #6D543B",
"b c #6C553C",
"n c #705333",
"m c #765733",
"M c #725334",
"N c #705434",
"B c #725636",
"V c #745534",
"C c #745637",
"Z c #785734",
"A c #755B37",
"S c #785834",
"D c #795935",
"F c #7B5A35",
"G c #7C5A35",
"H c #7C5B37",
"J c #705538",
"K c #725739",
"L c #755839",
"P c #77593A",
"I c #74593E",
"U c #785939",
"Y c #7B5B39",
"T c #795A3A",
"R c #776134",
"E c #7B6236",
"W c #7E633B",
"Q c #825E35",
"! c #805F39",
"~ c #856037",
"^ c #85613A",
"/ c #82613C",
"( c #886239",
/* pixels */
"=>>344444433=&&&&=>>>>3>344rrreeewwwweew443>===-::::::# #:3333>>",
"BJfhjffshsashBBBBBBBBMBMsyrrrrrassaaaaaspprrrassshBCD/U.<spiyrpB",
"88000008880000e000000000000088800000eeeeerreettteeee0vJ.:7788888",
"axkffkxytaasssssspppssssaytyrreetyyyyyassnpnsnnnsatytbI.<80tttya",
"ahfuutyteetttyyryyrrrinsppppprrrttyyryyssssssayte088700 <7780tyy",
"ycJAUPPUUUUPCDDHHHHDDDDDCZCCDDCpppaasssMnBssssshJPPxtte -18eeeer",
"PUERPJJPPPUUUACCADHQQQQQQHHDBBCnppspssMBCCCBBBhBJJJx0xP.70taBMBC",
"xhvJPPPPPJJJBCCBBCCCDHHHHHHDDCnBCnnBBBCCCCBhattttyty0zJ :0eyatys",
"JJPPPPPUHHHHDADDDCCDDCDADHHHDHHACDDDDDDHHHDACCBsaxe8373 10ycBBMp",
"yyahuaayasBCBBCCDDDDDDDDCDDDDBBCCCCCmDHQHHDDACCBCCAPcIPX:<7780er",
"tuutuueeetttrtttyassipBCBBCCCCCCCCCCCCCDHHHDCBhhssssuIPo:7700eet",
"tuayyytetttttttttyytssaaasaatrayyayaippyrryassBsyte8174.:780eett",
"teeeeet0000ettttrttttttttttteeeeeeeettyiraaryyaasssaaPPo,770eett",
"e0000000000000088888000000000eeeeeeeeeetttttttttttaasHUo:77000ee",
":21777771:,:::,,,:,777777777773,,,1,,7337778888888877,: $::::;::",
"44=>>>>>>>34were4# &>3>>>>>>3444444333333>>33>>33444433>444q4444",
"DDDUUHHHHHUUUPUH^s sQAAPBssassssaaipnBBCCBCCCACCBJPCCCABBCHDDDDD",
"eeeeeeeeee000000sr 8e8800000000000008888887378888000088800eee000",
"aytassssaaytte00ae 700eettttttttttteeettee0eeeeeetrrrrrryyassass",
"MsssMCBCBBMsste0a4 :778800eeettyytaaiatreteeripsyssspppiyyaaassB",
"ettyttttasssste0t3 -::70yassssspppppartttrrrrtriprriryiyrrreeeee",
"BBBssasssBDDDBr83$ :00etyysMssCCCBBMsssasiiiaBBBBBBpsaayiiiirsBB",
"BBBBBssBBBBCCBaeB4 :0tMsBMCCCZDDHQQQHHHHDCDDCCDDCBBBhBsspssBBBBB",
"HHDDDABBBMBCBBstC4 &::70etyysssssssssMpsBBpBCCCCDDBAADDDDDDmDDHH",
"HHHDDABhBssssaytCw ;taCZDHHQQQQQQQQHHDHHAHBCCBCBBhCAADDDDDHHHHHH",
"DDDDCPACBssssatese -aCDZDDHQHHHHHDCCCCBBBsippaaaaBBBppphBAACAADD",
"CCCCCcssssatte08tr -0tBBMMMMMMssssspsiirirrrrihBBBADDAABBCBABACC",
"BBCBhshcvJPJst81,, #:,80tysMnCBBBpBsppiirrrryryaasBhBhBsaashaBsB",
"sashlhahauyyxateet -00tsBCDDBCBBCssCMBMMBsasaaattteeetteeeetuaaa",
"sshfklhfxxyyye000P.&080esMCCsMaastytyassssasaattteetttaauyazxahs",
"ayaxffxfzzttt0080U.#378000eeeeeeee00eeee000000000000eeeeettzxxaa",
"eeeutuuuue0000000Ho-xyzttaaayyytteee0ee0ee000888880000000080000e",
"888899976777372376.#7777777777773,317::::::----::;;;;;::<2<27777",
"&$$#$$$$$$$$&&***&&*;&&&&&--&&-&+.&::3443334448433333:=:::;$%%&&",
"ACJBhfllAAAAAARURPEHUUUUDDDDDDHQeo0rrrrirssssaashhBvvvvJAJlJJJAA",
"88589699000uuuuufxutee008888800D4o7,7777777777777778777798900099",
"0899898988769000ee0000000000008s:o,:3888888888880000000009000000",
"teeee00977779989888877771777,,:4&X::78000000000e00e00000e0000uee",
"ytfuttuuttttuteutttteeee0eeete0C>o::,780eetyyyaMBBPJJJJvvvafffas",
"aaajshautttettaaatttyytyttttte0D>O70eyasppsCCCCBsBhhsccccJvffxfa",
"sfaiaaiyyttytaaasassscsyayyytt0C>O80eysMnBMCCCBDDDUUUPPPJJvAJBBM",
"sytuittrterrrrrryyttttyytttte078& &::70etttryryaaasccccccccfxasp",
"BshhayyatyapprpspMCsCsCCCBMBsayC4o70eysMssrsBCCACCCPPPJJJPJJJACC",
"BABlhsMyshippBspCCMCsCMCCBBMsteB4o70eyasssMBBsBBBBJPPPPPJJPPJACM",
"CBhhMstpprprnspBpZpnyCsBssaaye0a3o800rysMCCCCZCDDHUUUUPPPUJPPBCC",
"ifsMMyrrrererreeerereee0000087:,&o800eyyyyyasBBBBhsBsssasxyaaysn",
"eueeee0eeeeeeeeeeereretyysMMsteJq.::::37000eeeeeeteeeeete0ee0eee",
"009000000000eeeeee0e0eeee000080ceo70eetyttyyyyyyytteeee000000000",
"00888873777780000000000eee00088csO8800eeeeeeeeeee000000000000000",
"86767:::,3777777888080008777778tyO808888888888800000000000000887",
"$$+oO####$&--::::::-:::::<<::<::-#-:::=>>>=:>=:::::;:::::::::-&$",
"^EE3#H^QQ~QQQQQQQ^((~QHDDD!^/////HHHHHHHHHHDHHHHDHHQ^^^^^((^((^(",
"vfWw#eeeteeeeeettttteeeeeee0e0080e0eeee000888888788800008000etua",
"e0Ue@e0eeeeeettettteteeettauate0eettttttttteeeeeeeeeeeeeeee0eete",
"77c4#0e0eteetaasshhhhshsshBhsattrerayaasprsssriittee008877717733",
"e0e:$0e0eettttayasssssshBBBBACCChpfBCCDHDDDACCDDDDDCBhBBBBBhshBa",
"e0J8#70eetasBBCCBCADDDDDHHDDHDDCAmCCCDHQHHQHHHQHHHDHDABBsaaaaytt",
"t0v8#18tasaBBCAAAADDQQQQQHQHDDDCDmBCBCCCDDADHHDDHQQHHDACCChBhsat",
"e0x8$8tJCBBCAADDADDHQQHQHHHHHHDDHDCDDDDDDHQHHDHHDDDDCABsahsaatte",
"078-$8tassCBBBCADAAAABBmmAAADDHHDCCADDDHDHDQHDABBBBssiareeeettae",
"aaP4#:770etttttaahBBCCBhBABhhafpraiassassasssaaaaasasaasaasshsBs",
"saU4$8yyaaaaaattttuuaauteeteeteeeeeeetttrtyaytttaaasaaayattrysss",
"aaUw#0yaaasaaaattteeee0087888880000000eeee080ee0eeeee0eeeeettaha",
",,,&o:,,11777,,,777377,:::-&&&&::,3333,::&-:::3733,377777771::,,"
};
