/* XPM */
static char *_9b4c5dbc71f4a57dcb36febc23acc8bwZ1rY7Lp0rSSEEvF[] = {
/* columns rows colors chars-per-pixel */
"64 64 2 1 ",
"  c black",
". c white",
/* pixels */
"                                                                ",
"                                                                ",
"                                                                ",
"                                                                ",
"                                                                ",
"                                                                ",
"                                                                ",
"                                                                ",
"                                                                ",
"                                                                ",
"                                                                ",
"                                 ..............                 ",
"                              ..................                ",
"                            .....................               ",
"                           ........          .....              ",
"                          ......              ....              ",
"                         .....                .....             ",
"                         ....                  ....             ",
"                        ....                    ...             ",
"                        ....                    ...             ",
"                        ...                     ...             ",
"                        ...                                     ",
"                        ...                                     ",
"                        ...                                     ",
"                        ...                                     ",
"                        ....                                    ",
"                        ....                                    ",
"                         ...                                    ",
"                         ....                                   ",
"                         ....                                   ",
"                          ....                                  ",
"                          .....                                 ",
"                           .....                                ",
"                            .....                               ",
"                             .....                              ",
"                              .....                             ",
"                               ......                           ",
"                                ......                          ",
"                                 ......                         ",
"                                   .....                        ",
"                                    .......                     ",
"                                     .......                    ",
"                                      .......                   ",
"                                         .....                  ",
"                                          ....                  ",
"                                           ....                 ",
"                                           ....                 ",
"                                            ...                 ",
"                                            ...                 ",
"                                            ...                 ",
"                                            ...                 ",
"                   .....                    ...                 ",
"                   .......                .....                 ",
"                   ...........           ......                 ",
"                      ........................                  ",
"                        .....................                   ",
"                            ...............                     ",
"                                                                ",
"                                                                ",
"                                                                ",
"                                                                ",
"                                                                ",
"                                                                ",
"                                                                "
};
