/* XPM */
static char *_5b45e37717b4c5191c3aaacdf722824amCWSYYlfA7LfITK[] = {
/* columns rows colors chars-per-pixel */
"64 64 2 1 ",
"  c black",
". c white",
/* pixels */
"                                                                ",
"                                                                ",
"                                                                ",
"                                                                ",
"                                                                ",
"                                                                ",
"                                                                ",
"                                                                ",
"                                                                ",
"                                                                ",
"                                                                ",
"                                                                ",
"                                                                ",
"     ...                                                ...     ",
"     ....                                              ....     ",
"     ....                                              ....     ",
"     .....                                            .....     ",
"      ....                                            ....      ",
"       ....                                          ....       ",
"       ....                                          ....       ",
"       ....                                          ....       ",
"        ....                                        ....        ",
"        ....                                        ....        ",
"        ....                                        ....        ",
"         ....                                      ....         ",
"         ....                                      ....         ",
"         ....                                      ....         ",
"          ....                                    ....          ",
"          ....                ....                ....          ",
"           ....              ......              ....           ",
"           ....            ..........            ....           ",
"            ...            ..........            ...            ",
"            ....          ............          ....            ",
"            ....         .....    .....         ....            ",
"             ...        .....      .....        ...             ",
"             ...       .....        .....       ...             ",
"             ....      ....          ....      ....             ",
"             ....     .....          .....     ....             ",
"              ...     ....            ....     ...              ",
"              ....   .....            .....   ....              ",
"              ....   ....              ....   ....              ",
"              ....  ....                ....  ....              ",
"               .... ....                .... ....               ",
"               .... ...                  ... ....               ",
"               ........                  ........               ",
"                .......                  .......                ",
"                ......                    ......                ",
"                ......                    ......                ",
"                 .....                    .....                 ",
"                 .....                    .....                 ",
"                  ...                      ...                  ",
"                                                                ",
"                                                                ",
"                                                                ",
"                                                                ",
"                                                                ",
"                                                                ",
"                                                                ",
"                                                                ",
"                                                                ",
"                                                                ",
"                                                                ",
"                                                                ",
"                                                                "
};
